<?xml version="1.0" standalone="no"?>
<!DOCTYPE svg PUBLIC "-//W3C//DTD SVG 20010904//EN"
 "http://www.w3.org/TR/2001/REC-SVG-20010904/DTD/svg10.dtd">
<svg version="1.0" xmlns="http://www.w3.org/2000/svg"
 width="1500.000000pt" height="1500.000000pt" viewBox="0 0 1500.000000 1500.000000"
 preserveAspectRatio="xMidYMid meet">

<g transform="translate(0.000000,1500.000000) scale(0.100000,-0.100000)"
fill="#000000" stroke="none">
<path d="M2445 9906 c-58 -26 -109 -80 -139 -145 -21 -46 -21 -54 -24 -1009
l-2 -963 -23 7 c-77 24 -161 101 -200 184 -20 43 -22 65 -27 415 -4 334 -7
374 -24 407 -54 111 -175 151 -281 96 -40 -21 -60 -45 -85 -100 -19 -43 -20
-66 -21 -479 -1 -405 1 -439 19 -510 69 -261 292 -467 558 -516 l84 -16 0
-237 0 -238 88 -32 c138 -51 269 -81 375 -87 l97 -6 0 295 0 294 58 18 c214
66 370 241 432 480 11 44 20 96 20 118 l0 38 129 0 128 0 31 -49 c40 -66 110
-103 192 -103 196 0 299 237 170 394 -101 123 -316 95 -377 -49 l-13 -33 -125
0 -125 0 0 159 0 158 36 6 c91 15 149 103 142 217 -4 80 -35 134 -98 169 -82
46 -179 38 -247 -22 -90 -79 -97 -209 -18 -313 24 -32 25 -38 25 -199 0 -190
-4 -203 -92 -310 -76 -91 -248 -275 -259 -275 -5 0 -10 421 -11 1008 -3 964
-4 1009 -22 1060 -57 157 -228 235 -371 168z"/>
<path d="M4593 8623 l-43 -4 0 -447 c0 -246 3 -620 7 -831 l6 -384 351 7 c386
7 468 16 570 64 133 63 192 164 211 363 9 92 -8 240 -36 314 -11 30 -40 76
-64 103 -44 49 -45 50 -31 83 43 103 46 334 6 461 -50 163 -177 245 -410 268
-91 9 -478 11 -567 3z m620 -337 c54 -27 72 -65 72 -156 0 -83 -16 -120 -66
-145 -42 -22 -154 -36 -259 -33 l-95 3 -3 178 -2 179 157 -4 c130 -3 165 -7
196 -22z m94 -674 c57 -30 73 -64 73 -154 0 -56 -5 -81 -20 -106 -35 -57 -71
-66 -292 -70 l-198 -4 0 182 0 182 198 -4 c180 -3 201 -6 239 -26z"/>
<path d="M13465 8525 c-150 -31 -260 -115 -306 -233 -18 -45 -22 -78 -23 -157
0 -129 24 -197 98 -270 65 -64 122 -94 404 -210 252 -103 297 -127 337 -179
42 -55 51 -189 16 -254 -20 -37 -89 -90 -142 -108 -83 -29 -303 -26 -381 5
-91 36 -148 117 -148 213 0 61 -14 69 -115 66 l-90 -3 0 -90 c1 -76 5 -99 27
-147 53 -113 139 -180 285 -220 63 -17 106 -21 228 -20 160 0 251 16 348 62
155 73 239 252 208 441 -15 93 -41 147 -97 204 -62 61 -115 89 -383 200 -320
132 -367 164 -391 270 -26 117 33 218 147 251 77 23 229 23 307 0 122 -36 176
-95 185 -205 l6 -66 95 0 95 0 3 76 c6 173 -90 292 -286 356 -64 22 -100 26
-217 29 -95 2 -162 -1 -210 -11z"/>
<path d="M9345 8505 c-171 -32 -300 -124 -364 -259 -53 -113 -56 -140 -56
-536 0 -314 3 -375 18 -434 68 -269 277 -398 617 -383 190 9 299 47 396 139
63 59 93 107 126 194 21 56 22 76 26 434 4 424 -1 471 -63 597 -58 118 -165
200 -310 238 -87 23 -291 28 -390 10z m310 -180 c117 -31 193 -102 232 -216
16 -48 18 -91 18 -409 0 -257 -3 -366 -13 -397 -29 -97 -118 -186 -215 -215
-24 -8 -95 -13 -167 -13 -114 0 -130 2 -181 26 -80 38 -131 88 -165 161 -28
63 -28 63 -38 363 -10 328 -3 438 34 522 39 89 119 153 225 179 71 17 200 17
270 -1z"/>
<path d="M11706 8500 l-219 -5 2 -775 c1 -426 5 -778 7 -782 8 -12 477 -9 579
3 273 33 454 162 533 378 48 134 56 192 55 426 0 193 -3 230 -22 300 -65 245
-215 386 -462 435 -116 23 -195 26 -473 20z m406 -184 c182 -39 292 -144 333
-318 20 -86 20 -426 0 -521 -40 -190 -150 -305 -337 -353 -45 -12 -112 -17
-238 -18 l-175 -1 -3 613 -2 612 177 0 c115 0 202 -5 245 -14z"/>
<path d="M12800 7772 c0 -407 3 -760 6 -786 l7 -46 94 0 c66 0 95 4 98 13 3 6
1 359 -3 782 l-7 770 -97 3 -98 3 0 -739z"/>
<path d="M10272 8492 c-11 -7 -11 -154 -5 -788 l8 -779 95 0 95 0 3 331 2 331
107 6 c58 4 127 7 153 7 l46 0 203 -335 203 -335 108 0 c60 0 111 4 114 8 3 5
-85 156 -195 337 -111 180 -203 334 -206 342 -3 7 1 13 9 13 34 0 139 64 182
110 87 93 121 203 114 360 -10 201 -106 315 -316 372 -69 19 -111 21 -392 25
-173 2 -321 0 -328 -5z m664 -186 c112 -35 163 -102 172 -225 12 -173 -62
-275 -226 -310 -29 -6 -134 -11 -232 -11 l-179 0 -3 281 c-2 154 -1 283 2 286
3 3 97 3 210 0 147 -4 219 -9 256 -21z"/>
<path d="M5990 8483 c-37 -14 -74 -49 -91 -87 -78 -172 131 -327 270 -200 118
106 43 296 -115 293 -27 0 -56 -3 -64 -6z"/>
<path d="M6845 8479 c-191 -24 -352 -140 -434 -311 -64 -134 -77 -254 -41
-392 27 -109 63 -169 150 -257 115 -116 240 -169 403 -169 246 0 464 164 539
405 32 101 30 243 -5 344 -89 255 -345 415 -612 380z m175 -330 c94 -43 141
-111 148 -216 4 -64 1 -79 -23 -129 -41 -84 -130 -142 -222 -143 -169 -3 -304
177 -249 332 21 58 55 101 105 135 53 35 67 39 141 41 36 0 71 -7 100 -20z"/>
<path d="M8573 8479 c-9 -9 -11 -171 -7 -678 l4 -666 -32 70 c-17 39 -167 340
-332 670 l-301 600 -154 3 c-85 1 -158 -1 -163 -6 -5 -5 -6 -347 -2 -786 l7
-777 96 3 96 3 -2 673 -2 673 337 -673 337 -673 155 0 155 0 2 500 c2 275 -1
628 -5 785 l-7 285 -85 3 c-56 2 -89 -1 -97 -9z"/>
<path d="M6011 8054 c-34 -17 -62 -41 -79 -67 l-27 -41 -3 -503 -3 -503 156 0
155 0 0 570 0 570 -73 0 c-59 0 -83 -5 -126 -26z"/>
<path d="M6376 7239 c-25 -20 -26 -23 -26 -139 0 -176 -57 -160 554 -160 275
0 511 3 524 6 38 10 52 53 52 154 0 101 -14 144 -52 154 -13 3 -249 6 -524 6
-492 0 -502 0 -528 -21z"/>
<path d="M1318 6849 c-130 -16 -383 -88 -425 -122 -18 -13 -16 -67 2 -111 19
-45 86 -113 120 -122 15 -4 62 4 118 20 139 39 228 50 387 50 229 -1 377 -34
700 -156 419 -159 695 -178 976 -69 96 37 111 38 126 6 10 -22 8 -29 -11 -49
-56 -59 -230 -125 -388 -146 -172 -24 -393 12 -628 100 -441 166 -496 180
-725 187 -137 4 -196 2 -270 -11 -52 -9 -99 -21 -103 -25 -4 -4 112 -80 260
-168 962 -574 1019 -607 1063 -616 67 -13 110 2 266 96 77 46 207 123 289 172
287 169 442 260 877 519 127 76 209 131 228 154 37 44 58 108 43 123 -23 23
-221 69 -344 81 -220 20 -387 -8 -646 -110 -209 -83 -339 -104 -508 -83 -126
15 -225 43 -405 113 -353 137 -486 168 -750 173 -96 2 -209 0 -252 -6z"/>
<path d="M7230 6799 c-18 -32 -2 -36 28 -6 26 26 26 27 5 27 -12 0 -27 -9 -33
-21z"/>
<path d="M13653 6783 c-29 -5 -53 -40 -53 -73 0 -33 31 -62 90 -84 58 -23 70
-33 70 -61 0 -33 -23 -47 -72 -43 -33 2 -45 8 -53 26 -5 12 -18 22 -28 22 -14
0 -17 -5 -12 -22 12 -41 43 -58 102 -58 44 0 58 5 78 25 48 47 28 96 -53 132
-94 41 -113 69 -67 99 33 21 83 10 97 -22 13 -27 38 -33 38 -8 0 30 -21 53
-58 64 -38 10 -41 10 -79 3z"/>
<path d="M12094 6770 c-42 -17 -54 -48 -54 -142 0 -76 3 -90 23 -113 47 -55
157 -42 183 21 17 40 18 139 3 183 -18 51 -93 76 -155 51z m106 -40 c17 -17
20 -33 20 -100 0 -67 -3 -83 -20 -100 -25 -25 -71 -26 -101 -1 -20 16 -24 30
-27 94 -4 70 -2 78 21 101 32 32 79 34 107 6z"/>
<path d="M12370 6636 c0 -122 2 -146 15 -146 12 0 15 23 17 123 l3 122 63
-122 c59 -116 64 -123 92 -123 l30 0 0 78 c0 125 -11 212 -26 212 -11 0 -14
-27 -14 -126 l0 -126 -62 124 c-56 108 -66 123 -90 126 l-28 3 0 -145z"/>
<path d="M12663 6756 c-26 -22 -28 -31 -31 -109 -5 -106 10 -141 68 -158 31
-9 49 -9 80 0 58 17 73 52 68 158 -3 78 -5 87 -31 109 -21 18 -40 24 -77 24
-37 0 -56 -6 -77 -24z m129 -23 c25 -23 27 -183 2 -204 -25 -21 -93 -17 -110
6 -21 28 -19 173 3 197 20 23 80 24 105 1z"/>
<path d="M12900 6635 c0 -122 2 -145 15 -145 12 0 15 13 15 60 l0 60 33 0 c29
0 36 -6 66 -60 23 -38 41 -60 53 -60 24 0 23 6 -17 70 l-34 55 24 20 c46 39
43 105 -6 130 -15 8 -55 15 -89 15 l-60 0 0 -145z m131 105 c20 -11 26 -54 10
-79 -5 -7 -32 -16 -60 -19 l-51 -5 0 57 0 56 41 0 c22 0 49 -5 60 -10z"/>
<path d="M13140 6635 l0 -145 55 0 c115 0 155 37 155 145 0 108 -40 145 -155
145 l-55 0 0 -145z m133 104 c33 -15 47 -49 47 -110 0 -42 -5 -55 -29 -80 -24
-24 -38 -29 -75 -29 l-46 0 0 115 0 115 40 0 c21 0 50 -5 63 -11z"/>
<path d="M13400 6635 l0 -145 80 0 c64 0 80 3 80 15 0 12 -14 15 -65 15 l-65
0 0 50 0 49 57 3 c78 4 83 26 6 30 l-58 3 -3 48 -3 47 65 0 c52 0 66 3 66 15
0 12 -16 15 -80 15 l-80 0 0 -145z"/>
<path d="M13810 6765 c0 -11 11 -15 40 -15 l39 0 3 -127 c3 -106 6 -128 18
-128 12 0 15 22 18 128 l3 127 39 0 c29 0 40 4 40 15 0 12 -18 15 -100 15 -82
0 -100 -3 -100 -15z"/>
<path d="M14042 6638 l3 -143 78 1 c43 1 80 4 83 7 16 15 -13 27 -67 27 l-59
0 0 50 0 50 61 0 c81 0 77 24 -4 28 l-57 3 0 44 0 44 62 3 c38 2 63 8 66 16 3
9 -18 12 -82 12 l-87 0 3 -142z"/>
<path d="M10489 6755 c-31 -17 -43 -53 -30 -88 9 -22 60 -53 119 -71 47 -15
53 -80 8 -92 -45 -11 -80 0 -94 29 -7 15 -20 27 -28 27 -22 0 -16 -38 11 -65
19 -20 34 -25 73 -25 64 0 102 28 102 74 0 45 -15 61 -93 95 -63 28 -68 33
-65 58 6 53 109 58 116 5 2 -12 10 -22 17 -22 41 0 20 63 -26 79 -42 15 -78
13 -110 -4z"/>
<path d="M10690 6626 c0 -140 1 -146 20 -146 20 0 20 5 18 142 -3 127 -5 143
-20 146 -17 3 -18 -9 -18 -142z"/>
<path d="M10780 6625 l0 -147 75 4 c66 3 78 7 102 31 23 23 28 37 31 95 4 76
-12 123 -49 142 -11 6 -51 14 -90 17 l-69 6 0 -148z m153 86 c18 -18 22 -33
22 -85 0 -54 -4 -68 -24 -90 -20 -21 -34 -26 -73 -26 l-48 0 0 116 0 117 51
-5 c34 -4 58 -12 72 -27z"/>
<path d="M11085 6758 c-29 -80 -95 -270 -95 -274 0 -2 8 -4 19 -4 12 0 21 11
27 33 9 31 11 32 72 35 l63 3 14 -36 c14 -33 46 -49 44 -22 0 6 -21 71 -47
142 -40 110 -51 130 -70 133 -12 2 -24 -3 -27 -10z m53 -96 c12 -38 22 -71 22
-75 0 -4 -22 -7 -50 -7 -27 0 -50 3 -50 7 0 16 44 143 50 143 3 0 16 -31 28
-68z"/>
<path d="M11250 6625 l0 -145 55 0 c115 0 155 37 155 145 0 108 -40 145 -155
145 l-55 0 0 -145z m133 104 c33 -15 47 -49 47 -110 0 -42 -5 -55 -29 -80 -24
-24 -38 -29 -75 -29 l-46 0 0 115 0 115 40 0 c21 0 50 -5 63 -11z"/>
<path d="M11510 6625 l0 -145 80 0 c63 0 80 3 80 15 0 10 -16 15 -62 17 l-63
3 -3 48 -3 47 60 0 c47 0 61 3 61 15 0 10 -15 15 -57 17 l-58 3 -3 48 -3 47
65 0 c52 0 66 3 66 15 0 12 -16 15 -80 15 l-80 0 0 -145z"/>
<path d="M11782 6628 l3 -143 45 -3 c58 -4 110 11 139 42 34 37 41 147 12 194
-26 41 -55 52 -137 52 l-65 0 3 -142z m154 89 c23 -20 27 -31 27 -78 0 -30 -3
-64 -7 -77 -9 -28 -55 -52 -101 -52 l-35 0 0 115 0 115 44 0 c33 0 52 -6 72
-23z"/>
<path d="M8330 6753 c-32 -12 -50 -37 -50 -68 0 -38 12 -50 94 -90 67 -33 85
-66 50 -92 -39 -29 -114 -7 -114 33 0 14 -21 19 -33 8 -3 -3 -1 -18 4 -33 26
-74 178 -66 194 10 10 43 -16 75 -83 103 -66 28 -86 47 -77 75 13 43 100 38
120 -7 5 -12 15 -22 22 -22 20 0 15 45 -7 65 -20 18 -93 29 -120 18z"/>
<path d="M8860 6616 l0 -146 66 0 c96 0 124 18 124 82 0 29 -6 41 -24 53 -24
16 -24 17 -5 36 24 24 24 60 1 89 -15 18 -31 23 -90 28 l-72 5 0 -147z m130
94 c11 -11 20 -24 20 -30 0 -24 -41 -50 -80 -50 l-40 0 0 43 c0 24 3 47 7 50
14 15 74 6 93 -13z m14 -126 c41 -40 7 -84 -65 -84 l-49 0 0 50 0 50 49 0 c32
0 55 -6 65 -16z"/>
<path d="M9090 6615 c0 -122 2 -145 15 -145 13 0 15 23 15 145 0 122 -2 145
-15 145 -13 0 -15 -23 -15 -145z"/>
<path d="M9199 6741 c-23 -18 -24 -26 -24 -125 0 -118 6 -132 66 -145 45 -10
97 2 123 28 18 19 21 33 21 117 0 92 -1 97 -28 120 -37 31 -122 34 -158 5z
m133 -28 c15 -13 18 -31 18 -98 0 -95 -14 -117 -76 -117 -58 0 -69 19 -69 118
0 73 3 88 19 100 27 19 85 18 108 -3z"/>
<path d="M9430 6615 l0 -145 60 0 c112 0 160 43 160 144 0 105 -45 146 -160
146 l-60 0 0 -145z m152 95 c30 -23 41 -77 28 -135 -12 -52 -41 -75 -96 -75
l-44 0 0 115 0 115 44 0 c28 0 52 -7 68 -20z"/>
<path d="M9690 6615 c0 -138 1 -145 20 -145 19 0 20 7 20 145 0 138 -1 145
-20 145 -19 0 -20 -7 -20 -145z"/>
<path d="M9753 6748 c2 -7 24 -73 48 -146 41 -124 45 -133 68 -130 20 3 29 18
66 123 61 174 59 165 38 165 -15 0 -26 -24 -57 -117 -21 -65 -41 -121 -45
-125 -3 -4 -24 49 -45 117 -33 104 -42 125 -59 125 -11 0 -17 -5 -14 -12z"/>
<path d="M10010 6615 l0 -145 85 0 c69 0 85 3 85 15 0 12 -14 15 -65 15 l-65
0 0 50 0 49 57 3 c81 4 85 28 4 28 l-61 0 0 50 0 50 65 0 c51 0 65 3 65 15 0
12 -16 15 -85 15 l-85 0 0 -145z"/>
<path d="M10222 6618 c3 -119 5 -143 18 -143 11 0 16 15 18 63 3 60 4 62 30
62 22 0 34 -11 64 -60 25 -41 43 -60 57 -60 18 0 17 5 -15 59 l-35 59 25 26
c33 32 35 87 6 116 -16 16 -33 20 -95 20 l-76 0 3 -142z m146 95 c32 -43 2
-83 -64 -83 l-44 0 0 56 0 57 48 -7 c26 -3 52 -14 60 -23z"/>
<path d="M6770 6743 c-8 -3 -25 -15 -37 -26 -21 -19 -23 -29 -23 -116 1 -100
7 -118 47 -139 45 -25 121 -11 150 27 8 10 12 52 13 112 0 89 -2 97 -24 118
-25 23 -95 37 -126 24z m97 -45 c20 -19 23 -31 23 -100 0 -92 -17 -118 -74
-118 -54 0 -76 36 -76 123 0 59 4 75 22 94 28 30 74 30 105 1z"/>
<path d="M6970 6606 l0 -146 80 0 c64 0 80 3 80 15 0 12 -13 15 -60 15 l-59 0
-3 127 c-3 112 -5 128 -20 131 -17 3 -18 -9 -18 -142z"/>
<path d="M7160 6605 l0 -145 80 0 c64 0 80 3 80 15 0 12 -14 15 -65 15 l-65 0
0 50 0 50 60 0 c47 0 60 3 60 15 0 12 -13 15 -61 15 l-60 0 3 48 3 47 63 3
c46 2 62 7 62 17 0 12 -17 15 -80 15 l-80 0 0 -145z"/>
<path d="M7385 6725 c-23 -22 -25 -32 -25 -118 0 -75 4 -99 18 -116 35 -44
139 -44 174 -1 22 27 24 70 3 70 -8 0 -15 -8 -15 -18 0 -52 -97 -75 -132 -32
-24 30 -25 155 -2 188 13 19 23 23 62 20 42 -3 49 -7 62 -35 19 -41 40 -43 40
-4 0 45 -40 71 -107 71 -44 0 -58 -5 -78 -25z"/>
<path d="M7610 6658 c0 -155 24 -199 109 -200 48 0 88 23 101 58 6 14 10 72
10 130 0 97 -1 104 -20 104 -19 0 -20 -7 -20 -113 0 -128 -11 -151 -71 -149
-60 2 -69 21 -69 149 0 106 -1 113 -20 113 -19 0 -20 -7 -20 -92z"/>
<path d="M7880 6605 l0 -145 94 0 93 0 9 33 c10 31 11 32 75 35 l66 3 9 -33
c9 -31 44 -53 44 -28 0 6 -21 72 -47 146 -45 127 -49 134 -73 132 -22 -3 -29
-16 -69 -130 l-44 -128 -63 0 -64 0 0 130 c0 109 -2 130 -15 130 -13 0 -15
-23 -15 -145z m298 37 c12 -38 22 -71 22 -75 0 -4 -22 -7 -50 -7 -27 0 -50 3
-50 7 0 16 44 143 50 143 3 0 16 -31 28 -68z"/>
<path d="M8582 6608 l3 -143 78 1 c43 1 80 4 83 7 16 15 -13 27 -67 27 l-59 0
0 50 0 50 61 0 c81 0 77 24 -4 28 l-57 3 0 44 0 44 62 3 c38 2 63 8 66 16 3 9
-18 12 -82 12 l-87 0 3 -142z"/>
<path d="M5309 6711 c-28 -28 -29 -33 -29 -118 0 -102 11 -125 66 -143 65 -22
136 10 146 65 5 32 -26 29 -39 -4 -8 -23 -19 -31 -46 -36 -68 -13 -97 23 -97
124 0 75 25 111 76 111 36 0 74 -28 74 -55 0 -8 7 -15 15 -15 10 0 15 10 15
29 0 43 -40 71 -102 71 -41 0 -54 -5 -79 -29z"/>
<path d="M5559 6711 c-28 -28 -29 -33 -29 -121 0 -83 2 -93 24 -115 52 -52
156 -40 182 21 18 43 18 145 0 189 -18 42 -42 55 -101 55 -38 0 -52 -5 -76
-29z m131 -21 c17 -17 20 -33 20 -98 0 -90 -10 -110 -60 -118 -57 -9 -82 18
-88 94 -5 70 1 104 24 126 22 23 80 20 104 -4z"/>
<path d="M5860 6595 l0 -145 55 0 c115 0 155 37 155 145 0 108 -40 145 -155
145 l-55 0 0 -145z m133 104 c33 -15 47 -49 47 -110 0 -42 -5 -55 -29 -80 -24
-24 -38 -29 -75 -29 l-46 0 0 115 0 115 40 0 c21 0 50 -5 63 -11z"/>
<path d="M6120 6595 l0 -145 80 0 c63 0 80 3 80 15 0 10 -16 15 -62 17 l-63 3
-3 48 -3 47 60 0 c47 0 61 3 61 15 0 10 -15 15 -57 17 l-58 3 -3 48 -3 47 65
0 c52 0 66 3 66 15 0 12 -16 15 -80 15 l-80 0 0 -145z"/>
<path d="M6390 6595 c0 -122 2 -145 15 -145 12 0 15 18 17 93 1 50 2 104 1
120 -1 15 1 27 3 27 3 0 26 -46 53 -102 l48 -103 28 60 c15 33 37 80 48 105
l22 45 3 -123 c2 -110 4 -123 20 -120 9 2 17 9 16 16 -1 6 -2 71 -2 142 l-2
130 -29 0 c-26 0 -31 -6 -61 -77 -17 -43 -35 -82 -39 -86 -5 -4 -25 30 -46 78
-35 78 -41 85 -67 85 l-28 0 0 -145z"/>
<path d="M4570 6585 l0 -145 55 0 c74 0 122 21 131 56 9 35 -6 77 -32 88 -20
9 -20 9 3 32 30 30 29 59 -2 89 -21 22 -33 25 -90 25 l-65 0 0 -145z m128 103
c7 -7 12 -21 12 -33 0 -32 -20 -45 -67 -45 l-43 0 0 45 0 45 43 0 c24 0 48 -5
55 -12z m12 -128 c41 -41 15 -81 -58 -88 l-52 -5 0 57 0 56 45 0 c32 0 51 -6
65 -20z"/>
<path d="M4806 6598 c-25 -73 -46 -139 -46 -145 0 -27 29 -11 40 22 l12 35 64
0 c63 0 65 -1 75 -30 7 -19 18 -30 30 -30 16 0 13 14 -30 138 -43 123 -51 137
-73 140 -24 3 -28 -5 -72 -130z m95 35 c12 -38 24 -74 27 -80 3 -9 -10 -13
-47 -13 -43 0 -51 3 -51 18 0 19 39 142 45 142 2 0 13 -30 26 -67z"/>
<path d="M5012 6588 c3 -127 5 -143 21 -146 15 -3 17 8 17 124 l0 127 60 -122
c56 -115 61 -121 90 -121 l30 0 0 140 c0 116 -2 140 -15 140 -12 0 -15 -23
-17 -122 l-3 -123 -59 123 c-59 120 -60 122 -93 122 l-34 0 3 -142z"/>
</g>
</svg>
