<?xml version="1.0" standalone="no"?>
<!DOCTYPE svg PUBLIC "-//W3C//DTD SVG 20010904//EN"
 "http://www.w3.org/TR/2001/REC-SVG-20010904/DTD/svg10.dtd">
<svg version="1.0" xmlns="http://www.w3.org/2000/svg"
 width="1500.000000pt" height="1500.000000pt" viewBox="0 0 1500.000000 1500.000000"
 preserveAspectRatio="xMidYMid meet">

<g transform="translate(0.000000,1500.000000) scale(0.100000,-0.100000)"
fill="#000000" stroke="none">
<path d="M0 7500 l0 -7500 7500 0 7500 0 0 7500 0 7500 -7500 0 -7500 0 0
-7500z m2728 2044 c64 -32 114 -89 144 -163 l23 -56 3 -1027 c1 -566 6 -1028
11 -1028 10 0 137 132 238 247 112 128 113 130 113 343 l0 181 -30 38 c-132
164 27 409 229 351 127 -36 197 -186 142 -305 -23 -51 -79 -101 -131 -116
l-40 -12 0 -152 0 -152 53 -7 c28 -3 82 -6 119 -6 l67 0 35 54 c131 206 436
116 436 -128 0 -140 -103 -246 -238 -246 -66 0 -145 41 -183 94 -16 22 -33 47
-39 54 -8 8 -47 12 -131 12 -87 0 -121 -3 -123 -12 -2 -7 -8 -45 -14 -83 -26
-165 -87 -289 -197 -400 -74 -74 -159 -126 -255 -156 l-55 -17 -3 -301 -2
-301 -68 0 c-97 1 -200 22 -342 69 -189 63 -170 29 -170 311 l0 240 -27 0
c-55 0 -159 31 -239 71 -196 96 -333 265 -387 477 -21 84 -22 102 -20 512 2
476 3 483 71 553 97 99 262 74 323 -50 24 -47 24 -55 30 -418 5 -377 8 -404
48 -468 38 -61 156 -157 193 -157 4 0 9 435 10 968 l3 967 23 56 c49 122 142
189 263 189 50 0 77 -6 117 -26z m-488 -468 l0 -104 -217 -125 c-201 -115
-518 -299 -902 -522 -170 -99 -202 -131 -220 -216 -14 -62 -15 -1809 -2 -1809
5 0 33 11 62 24 161 71 371 109 604 109 257 1 413 -30 690 -135 274 -104 317
-119 405 -138 131 -29 249 -34 365 -16 101 15 154 32 343 105 168 65 257 83
429 89 169 5 299 -11 433 -54 41 -13 78 -24 83 -24 12 0 9 1791 -4 1849 -13
63 -43 108 -94 142 -22 15 -179 108 -350 207 -397 230 -798 464 -852 496 l-43
26 0 100 c0 55 4 100 9 100 4 0 102 -54 217 -121 115 -67 310 -180 434 -251
124 -72 266 -154 315 -183 50 -28 159 -92 244 -140 84 -49 174 -108 200 -131
54 -49 96 -126 111 -203 14 -73 14 -1889 0 -1962 -15 -78 -56 -152 -114 -207
-28 -27 -118 -88 -201 -137 -82 -48 -375 -222 -650 -385 -275 -164 -551 -328
-614 -365 -183 -109 -212 -120 -311 -119 -111 0 -123 5 -586 281 -203 121
-535 318 -739 438 -203 120 -389 231 -413 247 -57 39 -116 115 -143 185 -22
58 -22 58 -26 994 -3 595 0 958 6 997 26 162 93 239 321 369 263 150 764 440
985 569 116 68 213 123 218 124 4 0 7 -47 7 -104z m3145 -786 c138 -34 244
-118 284 -226 47 -125 53 -334 12 -464 -20 -63 -20 -66 -2 -80 32 -26 72 -87
92 -140 45 -118 44 -364 -2 -484 -30 -79 -96 -149 -173 -186 -103 -49 -198
-59 -586 -62 l-345 -3 -5 825 c-3 454 -3 829 -1 833 5 14 667 2 726 -13z
m8553 -86 c152 -31 270 -111 321 -218 25 -50 39 -162 27 -210 -6 -26 -8 -26
-101 -26 l-95 0 0 53 c-1 95 -50 166 -145 208 -39 18 -75 24 -164 27 -134 5
-203 -7 -260 -48 -57 -42 -75 -81 -75 -165 -1 -139 43 -175 394 -320 266 -111
321 -140 385 -202 132 -131 133 -408 2 -559 -47 -53 -151 -107 -252 -130 -105
-24 -330 -25 -428 -1 -148 37 -263 128 -307 244 -23 63 -32 195 -14 213 7 7
45 10 100 8 l89 -3 8 -50 c22 -135 60 -190 155 -225 72 -27 214 -37 306 -21
158 28 236 105 236 233 0 76 -16 124 -56 163 -45 45 -82 64 -354 174 -252 103
-294 125 -362 189 -69 64 -100 136 -106 245 -13 228 100 372 330 422 88 19
272 18 366 -1z m-4125 -20 c203 -45 328 -162 383 -359 25 -88 33 -715 10 -834
-54 -289 -276 -436 -631 -417 -190 10 -301 51 -398 147 -66 67 -110 151 -132
255 -22 107 -23 745 -1 837 49 205 173 323 391 372 86 19 290 19 378 -1z
m2377 -5 c299 -37 475 -169 549 -413 45 -147 50 -455 11 -647 -55 -269 -215
-428 -491 -485 -69 -15 -136 -18 -369 -19 l-285 0 -9 779 c-7 658 -6 780 5
787 20 12 487 11 589 -2z m913 4 c3 -5 7 -357 8 -783 l4 -775 -100 0 -100 0
-6 775 c-4 426 -5 778 -2 783 2 4 46 7 98 7 52 0 96 -3 98 -7z m-6899 -12 c41
-10 89 -50 112 -93 19 -36 18 -112 -3 -155 -37 -78 -145 -113 -228 -73 -64 31
-95 80 -95 148 0 88 48 154 125 173 41 10 45 10 89 0z m4849 -6 c265 -47 398
-231 359 -498 -23 -156 -109 -277 -237 -333 -36 -16 -65 -31 -65 -35 0 -3 90
-154 200 -334 110 -180 200 -334 200 -341 0 -12 -21 -14 -112 -12 l-113 3
-201 330 -200 330 -152 3 -152 3 0 -335 c0 -295 -2 -335 -16 -340 -29 -11
-169 -7 -182 6 -9 9 -12 197 -12 783 0 425 3 775 7 778 13 14 594 7 676 -8z
m-3853 -23 c130 -45 222 -115 293 -219 259 -379 -8 -892 -465 -893 -258 0
-488 176 -553 426 -20 77 -19 225 1 295 59 200 208 346 406 399 92 25 234 21
318 -8z m815 16 c7 -8 596 -1193 627 -1263 l36 -80 -2 675 -1 675 95 0 95 0 6
-380 c3 -209 7 -561 8 -781 l1 -402 -22 -6 c-13 -3 -83 -6 -155 -6 -127 0
-133 1 -146 23 -21 33 -533 1051 -605 1202 l-62 130 2 -675 3 -675 -96 -3 -96
-3 -6 248 c-4 136 -7 490 -7 785 l0 537 128 4 c120 3 191 1 197 -5z m-1702
-715 c4 -174 7 -430 7 -570 l0 -253 -68 0 c-38 0 -110 -3 -160 -6 l-92 -7 0
499 c0 466 2 502 19 540 19 42 65 85 111 103 14 5 59 10 101 10 l76 1 6 -317z
m1244 -525 c22 -20 23 -29 23 -139 0 -176 59 -160 -571 -157 -482 3 -520 4
-536 21 -15 15 -18 36 -18 138 0 115 1 122 24 140 22 18 46 19 539 19 l516 0
23 -22z m-183 -463 c-14 -22 -44 -35 -44 -19 0 18 24 44 41 44 18 0 19 -1 3
-25z m4952 -40 c31 -20 47 -85 41 -164 -7 -87 -34 -115 -111 -115 -64 0 -91
18 -106 73 -13 47 -12 117 3 161 22 64 109 87 173 45z m578 11 c44 -18 59 -64
54 -163 -3 -67 -6 -78 -31 -99 -41 -35 -128 -34 -162 1 -23 22 -25 32 -25 117
0 70 4 99 16 116 29 42 89 53 148 28z m274 -21 c12 -14 22 -35 22 -45 0 -22
-20 -70 -29 -70 -3 0 -12 -4 -19 -9 -10 -6 -5 -21 22 -67 41 -68 43 -74 18
-74 -11 0 -31 23 -56 65 -33 56 -42 65 -67 65 l-29 0 0 -66 c0 -57 -2 -65 -17
-62 -16 3 -18 19 -21 138 -1 74 0 140 3 148 4 12 20 14 78 9 61 -5 75 -10 95
-32z m230 11 c37 -19 52 -55 52 -126 0 -105 -33 -139 -145 -148 l-62 -4 -6 68
c-9 93 -9 219 1 228 11 12 128 -1 160 -18z m260 7 c-3 -15 -16 -19 -66 -21
l-62 -3 0 -44 0 -45 60 0 c47 0 60 -3 60 -15 0 -12 -13 -15 -60 -15 l-60 0 0
-50 0 -50 65 0 c51 0 65 -3 65 -15 0 -12 -16 -15 -85 -15 l-85 0 0 145 0 145
86 0 c76 0 85 -2 82 -17z m208 -8 c26 -26 29 -55 7 -62 -7 -3 -17 7 -23 21
-15 40 -91 50 -113 15 -17 -27 0 -49 60 -75 78 -35 93 -50 93 -94 0 -54 -28
-75 -100 -75 -43 0 -63 5 -79 19 -28 25 -28 66 -1 66 13 0 20 -7 20 -20 0 -42
99 -50 120 -10 17 31 0 50 -72 82 -48 22 -73 39 -79 55 -14 37 -11 52 16 78
35 36 115 36 151 0z m244 11 c0 -10 -14 -16 -42 -18 l-43 -3 4 -127 c3 -124 3
-128 -18 -128 -19 0 -21 6 -23 128 l-3 127 -42 3 c-29 2 -43 8 -43 18 0 11 20
14 105 14 85 0 105 -3 105 -14z m190 -1 c0 -10 -16 -15 -62 -17 l-63 -3 0 -45
0 -45 58 -3 c42 -2 57 -7 57 -17 0 -11 -14 -15 -55 -15 l-55 0 0 -50 0 -50 65
0 c51 0 65 -3 65 -15 0 -12 -16 -15 -85 -15 l-85 0 0 145 0 145 80 0 c63 0 80
-3 80 -15z m-3584 -20 c28 -18 38 -54 16 -62 -9 -4 -18 -1 -20 5 -8 25 -35 42
-65 42 -43 0 -59 -13 -55 -41 2 -18 18 -31 64 -54 81 -39 94 -52 94 -87 0 -43
-15 -65 -56 -78 -67 -22 -144 8 -144 57 0 31 28 30 40 -2 8 -21 16 -25 49 -25
57 0 71 8 71 41 0 27 -7 33 -75 64 -80 36 -97 61 -79 114 17 47 104 61 160 26z
m792 1 c37 -19 52 -55 52 -126 0 -105 -33 -139 -145 -148 l-62 -4 -6 68 c-9
93 -9 219 1 228 11 12 128 -1 160 -18z m262 4 c0 -18 -7 -20 -65 -20 l-65 0 0
-45 0 -45 60 0 c47 0 60 -3 60 -15 0 -12 -13 -15 -60 -15 l-60 0 0 -50 0 -50
65 0 c51 0 65 -3 65 -15 0 -12 -15 -15 -79 -15 l-78 0 -7 61 c-8 81 -8 214 1
222 3 4 42 7 85 7 71 0 78 -2 78 -20z m278 -1 c73 -45 68 -214 -7 -253 -18
-10 -56 -16 -96 -16 l-65 0 0 146 0 147 73 -5 c39 -3 82 -11 95 -19z m539
-101 l62 -123 0 123 c1 101 4 122 16 122 12 0 15 -18 15 -99 0 -54 3 -119 6
-145 l7 -46 -34 0 c-34 0 -35 2 -96 123 l-62 122 0 -122 c-1 -97 -4 -123 -15
-123 -16 0 -26 81 -26 206 l0 84 33 0 c31 0 34 -3 94 -122z m-3130 80 c19 -19
25 -38 30 -95 10 -126 -21 -173 -115 -173 -71 0 -98 26 -107 104 -13 103 9
167 65 189 32 13 102 -1 127 -25z m243 3 c35 -25 53 -84 45 -148 -11 -89 -57
-123 -167 -123 l-48 0 0 151 0 152 73 -7 c45 -4 81 -13 97 -25z m124 -63 c3
-50 6 -115 6 -145 0 -46 -2 -53 -20 -53 -19 0 -20 7 -20 145 0 115 3 145 14
145 9 0 15 -25 20 -92z m97 -35 l42 -128 42 125 c34 103 45 126 63 128 20 3
18 -4 -27 -140 -47 -139 -48 -143 -76 -143 -28 0 -30 4 -76 135 -27 74 -48
138 -48 143 -1 4 8 7 18 7 16 0 27 -23 62 -127z m349 107 c0 -18 -7 -20 -66
-20 l-65 0 3 -42 3 -43 58 -3 c42 -2 57 -7 57 -17 0 -11 -14 -15 -55 -15 l-55
0 0 -50 0 -50 65 0 c51 0 65 -3 65 -15 0 -12 -16 -15 -85 -15 l-85 0 0 145 0
145 80 0 c73 0 80 -2 80 -20z m214 -1 c36 -29 36 -86 0 -122 l-26 -26 23 -38
c12 -21 29 -48 37 -60 13 -22 13 -23 -9 -23 -19 0 -32 14 -58 60 -30 51 -39
60 -63 60 -28 0 -28 -1 -28 -60 0 -53 -2 -60 -20 -60 -19 0 -20 7 -20 145 l0
145 69 0 c54 0 74 -4 95 -21z m340 -71 c3 -50 6 -115 6 -145 0 -46 -2 -53 -20
-53 -19 0 -20 7 -20 145 0 115 3 145 14 145 9 0 15 -25 20 -92z m228 63 c28
-25 32 -35 36 -93 8 -119 -38 -168 -157 -168 l-61 0 0 145 0 145 75 0 c68 0
78 -3 107 -29z m230 -106 c26 -71 47 -136 48 -142 0 -7 -8 -13 -19 -13 -12 0
-21 11 -27 33 -9 31 -11 32 -72 35 l-63 3 -14 -36 c-9 -19 -22 -35 -30 -35 -8
0 -15 3 -15 7 0 5 21 70 46 146 45 134 47 138 73 135 24 -3 30 -14 73 -133z
m-4330 115 c57 -16 68 -40 68 -143 0 -102 -8 -123 -57 -144 -47 -19 -104 -9
-134 24 -22 22 -24 34 -24 118 0 85 2 96 24 119 21 22 37 30 76 35 6 0 27 -4
47 -9z m694 -21 c29 -28 34 -82 7 -77 -10 2 -19 13 -21 25 -5 31 -26 45 -67
45 -60 0 -75 -22 -75 -114 0 -65 3 -81 20 -98 39 -39 120 -18 120 31 0 12 7
19 20 19 30 0 26 -45 -6 -75 -38 -35 -121 -35 -161 -1 -25 21 -28 32 -31 99
-5 97 10 144 52 163 43 20 111 12 142 -17z m104 -92 c4 -103 8 -121 24 -133
29 -21 64 -17 91 11 24 23 25 31 25 135 0 101 2 111 18 108 15 -3 17 -17 20
-106 4 -150 -22 -192 -118 -192 -27 0 -48 8 -67 24 -28 24 -28 26 -31 151 -3
119 -2 127 15 123 16 -3 19 -17 23 -121z m260 -7 l0 -130 63 0 62 0 45 130
c42 122 47 131 69 128 21 -3 30 -19 72 -138 27 -74 49 -138 49 -142 0 -4 -9
-8 -19 -8 -13 0 -21 9 -26 30 -7 30 -7 30 -75 30 -67 0 -69 0 -75 -29 -7 -35
-16 -37 -122 -33 l-83 4 0 144 c0 137 1 144 20 144 19 0 20 -7 20 -130z m534
109 c17 -13 26 -29 24 -42 -4 -30 -26 -32 -38 -3 -16 44 -102 48 -115 6 -9
-29 1 -39 70 -70 94 -42 116 -84 71 -137 -22 -25 -31 -28 -86 -28 -53 0 -65 3
-81 24 -10 13 -19 32 -19 42 0 27 33 24 45 -3 24 -54 120 -43 120 12 0 21 -11
30 -62 55 -34 17 -70 38 -79 47 -24 24 -20 79 7 100 31 26 109 24 143 -3z
m296 6 c0 -10 -16 -15 -62 -17 l-63 -3 0 -45 0 -45 58 -3 c42 -2 57 -7 57 -17
0 -11 -14 -15 -55 -15 l-55 0 0 -50 0 -50 65 0 c51 0 65 -3 65 -15 0 -12 -16
-15 -85 -15 l-85 0 0 145 0 145 80 0 c63 0 80 -3 80 -15z m278 -5 c27 -26 28
-71 2 -95 -19 -17 -19 -18 5 -37 19 -15 25 -29 25 -57 0 -57 -26 -75 -114 -79
l-73 -4 -6 62 c-4 35 -7 101 -7 146 l0 84 73 0 c60 0 77 -4 95 -20z m102 -125
c0 -138 -1 -145 -20 -145 -19 0 -20 7 -20 145 0 138 1 145 20 145 19 0 20 -7
20 -145z m-3654 104 c29 -28 34 -82 7 -77 -10 2 -19 13 -21 25 -5 31 -26 45
-67 45 -60 0 -75 -22 -75 -114 0 -65 3 -81 20 -98 39 -39 120 -18 120 31 0 12
7 19 20 19 30 0 26 -45 -6 -75 -38 -35 -121 -35 -161 -1 -25 21 -28 32 -31 99
-5 97 10 144 52 163 43 20 111 12 142 -17z m251 -1 c19 -19 25 -38 30 -95 10
-126 -21 -173 -115 -173 -71 0 -98 26 -107 104 -13 103 9 167 65 189 32 13
102 -1 127 -25z m301 8 c37 -19 52 -55 52 -126 0 -105 -33 -139 -145 -148
l-62 -4 -6 68 c-9 93 -9 219 1 228 11 12 128 -1 160 -18z m262 4 c0 -18 -7
-20 -65 -20 l-65 0 0 -45 0 -45 60 0 c47 0 60 -3 60 -15 0 -12 -13 -15 -60
-15 l-60 0 0 -50 0 -50 65 0 c51 0 65 -3 65 -15 0 -12 -15 -15 -79 -15 l-78 0
-7 61 c-8 81 -8 214 1 222 3 4 42 7 85 7 71 0 78 -2 78 -20z m201 -66 c22 -48
44 -83 48 -78 4 5 22 44 41 87 30 70 35 77 61 77 l29 0 0 -145 c0 -115 -3
-145 -14 -145 -14 0 -26 83 -26 185 l0 50 -47 -103 c-25 -56 -48 -100 -50 -98
-3 3 -24 46 -48 96 -24 50 -46 94 -49 97 -3 4 -6 -46 -6 -110 0 -113 -1 -117
-21 -117 -21 0 -22 3 -15 61 3 34 6 100 6 145 0 83 0 84 26 84 22 0 30 -11 65
-86z m524 -43 l7 -129 59 5 c55 5 59 4 59 -16 0 -20 -5 -21 -80 -21 l-80 0 0
145 c0 118 3 145 14 145 11 0 16 -28 21 -129z m315 114 c0 -12 -14 -15 -65
-15 l-65 0 0 -45 0 -45 60 0 c53 0 60 -2 60 -20 0 -18 -7 -20 -61 -20 l-60 0
3 -47 3 -48 63 4 c57 3 62 1 62 -18 0 -20 -5 -21 -85 -21 l-85 0 0 145 0 145
85 0 c69 0 85 -3 85 -15z m-2616 -9 c44 -18 55 -58 28 -96 l-20 -26 24 -21
c34 -31 33 -85 -2 -112 -22 -17 -41 -21 -100 -21 l-74 0 0 145 0 145 55 0 c31
0 71 -6 89 -14z m239 -113 c25 -71 48 -136 52 -145 5 -14 2 -18 -14 -18 -14 0
-25 11 -35 35 -15 34 -16 35 -75 35 -59 0 -60 0 -71 -35 -8 -25 -18 -35 -32
-35 -15 0 -18 4 -13 18 4 9 25 69 46 132 22 63 41 121 44 128 2 6 15 12 28 12
22 0 29 -12 70 -127z m186 10 l60 -118 0 118 c1 110 2 117 21 117 19 0 20 -7
20 -145 l0 -145 -30 0 c-28 0 -33 7 -89 118 l-60 117 0 -117 c-1 -111 -2 -118
-21 -118 -19 0 -20 7 -20 145 l0 145 30 0 c28 0 33 -7 89 -117z"/>
<path d="M1435 6128 c-145 -8 -393 -63 -374 -82 2 -3 34 -22 71 -44 l67 -39
73 20 c103 29 432 31 558 4 94 -20 300 -89 485 -162 242 -96 478 -138 652
-116 218 26 423 116 423 186 0 47 -22 49 -126 10 -134 -50 -221 -65 -384 -65
-224 0 -241 4 -809 201 -221 76 -403 101 -636 87z"/>
<path d="M5018 7993 l-48 -4 0 -175 0 -174 138 0 c167 1 224 16 260 70 21 31
23 44 20 117 -3 74 -6 84 -32 112 -18 18 -46 33 -75 40 -55 12 -198 20 -263
14z"/>
<path d="M4980 7141 l0 -181 148 0 c287 0 351 29 360 160 6 86 -16 139 -71
171 -40 22 -53 24 -239 27 l-198 4 0 -181z"/>
<path d="M9478 8006 c-129 -37 -209 -123 -237 -254 -17 -82 -14 -639 4 -726
26 -122 94 -204 204 -248 81 -32 270 -31 352 1 121 47 191 144 209 288 6 48 6
196 1 388 -10 352 -13 372 -86 453 -29 32 -66 59 -107 77 -56 25 -76 29 -178
32 -75 1 -131 -2 -162 -11z"/>
<path d="M11873 8013 l-73 -4 0 -609 0 -610 168 0 c105 0 192 6 234 14 145 31
250 109 305 227 51 108 58 153 58 389 0 180 -3 226 -19 283 -37 137 -129 232
-265 277 -58 19 -248 42 -311 38 -14 -1 -58 -4 -97 -5z"/>
<path d="M10570 7726 l0 -286 163 0 c89 0 191 5 227 11 175 28 250 110 250
274 0 108 -14 152 -64 201 -65 65 -112 76 -363 81 l-213 5 0 -286z"/>
<path d="M6912 7824 c-186 -93 -185 -353 1 -448 126 -65 273 -18 340 109 17
31 22 58 22 115 0 83 -20 133 -72 182 -75 71 -197 89 -291 42z"/>
<path d="M12204 6386 c-16 -12 -19 -27 -19 -101 0 -99 11 -115 77 -115 56 0
71 29 66 126 -3 60 -7 79 -23 90 -24 18 -76 18 -101 0z"/>
<path d="M12823 6402 c-38 -6 -48 -29 -47 -114 2 -93 17 -118 71 -118 56 0 73
27 73 118 0 63 -4 82 -17 94 -21 18 -49 25 -80 20z"/>
<path d="M13040 6350 l0 -50 44 0 c50 0 76 19 76 54 0 34 -19 46 -72 46 l-48
0 0 -50z"/>
<path d="M13280 6290 l0 -110 48 0 c57 0 87 24 97 81 9 46 -10 116 -35 129
-10 5 -39 10 -64 10 l-46 0 0 -110z"/>
<path d="M11390 6280 l0 -110 48 0 c57 0 87 24 97 81 9 46 -10 116 -35 129
-10 5 -39 10 -64 10 l-46 0 0 -110z"/>
<path d="M11930 6286 l0 -116 39 0 c22 0 47 3 56 6 25 10 45 59 45 113 0 67
-27 99 -92 107 l-48 7 0 -117z"/>
<path d="M9363 6382 c-37 -5 -53 -40 -53 -110 0 -91 19 -122 76 -122 55 0 68
19 72 104 6 106 -19 139 -95 128z"/>
<path d="M9574 6319 c3 -34 6 -84 6 -110 l0 -49 45 0 c72 0 106 55 92 148 -9
51 -38 72 -100 72 l-50 0 7 -61z"/>
<path d="M10367 6383 c-9 -8 -9 -50 -1 -80 7 -25 43 -31 88 -13 21 8 26 16 26
44 0 25 -6 38 -19 46 -22 11 -84 14 -94 3z"/>
<path d="M10920 6274 l0 -117 47 6 c68 7 93 39 93 118 0 79 -26 109 -95 109
l-45 0 0 -116z"/>
<path d="M11192 6312 c-12 -38 -22 -71 -22 -75 0 -4 23 -7 51 -7 37 0 50 4 47
13 -3 6 -13 37 -23 67 -9 30 -21 58 -24 63 -4 4 -17 -24 -29 -61z"/>
<path d="M6866 6348 c-11 -15 -16 -45 -16 -93 0 -89 16 -115 68 -115 46 0 58
8 71 43 22 56 9 160 -22 179 -7 4 -29 8 -49 8 -27 0 -41 -6 -52 -22z"/>
<path d="M8232 6302 c-12 -38 -22 -71 -22 -75 0 -4 22 -7 49 -7 l50 0 -25 72
c-13 39 -25 73 -27 74 -2 2 -13 -27 -25 -64z"/>
<path d="M9000 6335 l0 -45 43 0 c47 0 67 13 67 45 0 32 -20 45 -67 45 l-43 0
0 -45z"/>
<path d="M9007 6253 c-4 -3 -7 -26 -7 -50 0 -52 12 -60 73 -47 39 8 42 11 45
47 3 32 0 38 -23 47 -30 11 -78 13 -88 3z"/>
<path d="M5723 6362 c-37 -5 -53 -40 -53 -110 0 -91 19 -122 76 -122 55 0 68
19 72 104 6 106 -19 139 -95 128z"/>
<path d="M6000 6250 l0 -110 48 0 c57 0 87 24 97 81 9 46 -10 116 -35 129 -10
5 -39 10 -64 10 l-46 0 0 -110z"/>
<path d="M4710 6311 l0 -51 33 0 c60 0 99 49 62 80 -8 6 -32 14 -55 17 l-40 6
0 -52z"/>
<path d="M4710 6180 l0 -50 41 0 c56 0 79 14 79 50 0 36 -23 50 -79 50 l-41 0
0 -50z"/>
<path d="M4976 6340 c-3 -8 -14 -43 -25 -77 l-19 -63 49 0 c27 0 49 4 49 8 0
25 -49 145 -54 132z"/>
</g>
</svg>
