<?xml version="1.0" standalone="no"?>
<!DOCTYPE svg PUBLIC "-//W3C//DTD SVG 20010904//EN"
 "http://www.w3.org/TR/2001/REC-SVG-20010904/DTD/svg10.dtd">
<svg version="1.0" xmlns="http://www.w3.org/2000/svg"
 width="1500.000000pt" height="1500.000000pt" viewBox="0 0 1500.000000 1500.000000"
 preserveAspectRatio="xMidYMid meet">

<g transform="translate(0.000000,1500.000000) scale(0.100000,-0.100000)"
fill="#000000" stroke="none">
<path d="M2515 9807 c-86 -33 -149 -103 -174 -193 -7 -27 -11 -338 -11 -967
l0 -928 -22 7 c-74 22 -162 102 -200 180 -22 48 -23 57 -28 414 -5 349 -6 367
-26 405 -12 22 -30 47 -40 56 -84 74 -222 63 -288 -23 -45 -60 -48 -94 -44
-553 4 -418 4 -432 27 -500 81 -245 291 -425 546 -469 l70 -12 3 -232 c2 -208
4 -232 20 -241 36 -19 230 -80 302 -94 41 -9 107 -17 145 -19 l70 -3 5 289 5
290 45 12 c162 43 303 165 387 336 23 45 43 109 56 179 l22 109 122 0 c117 0
123 -1 134 -22 69 -136 266 -166 365 -56 150 165 3 437 -211 389 -61 -14 -118
-57 -145 -112 l-20 -39 -125 0 -126 0 3 152 3 152 35 9 c86 22 139 98 140 200
0 130 -94 216 -226 205 -72 -6 -124 -42 -158 -109 -42 -85 -28 -187 34 -249
20 -20 21 -28 18 -199 l-3 -179 -38 -54 c-51 -75 -285 -328 -302 -328 -13 0
-15 138 -17 998 -3 990 -3 997 -24 1043 -61 132 -209 202 -329 156z"/>
<path d="M4681 8623 l-134 -4 7 -827 c4 -454 9 -828 11 -831 2 -2 177 1 387 7
407 11 447 16 549 67 62 32 133 113 159 181 53 143 42 416 -22 538 -6 10 -28
38 -49 61 l-38 41 20 65 c40 127 35 339 -11 462 -42 113 -145 190 -295 222
-75 16 -354 25 -584 18z m421 -312 c111 -12 144 -29 170 -88 16 -37 19 -60 15
-110 -10 -127 -60 -156 -277 -157 l-145 -1 -3 177 -2 177 37 4 c71 7 118 7
205 -2z m203 -696 c56 -29 77 -69 77 -155 0 -86 -21 -126 -77 -155 -35 -18
-64 -20 -237 -23 l-198 -4 0 182 0 182 198 -4 c173 -3 202 -5 237 -23z"/>
<path d="M13498 8530 c-175 -31 -290 -113 -340 -239 -17 -44 -21 -77 -21 -156
0 -130 23 -195 97 -268 66 -66 120 -95 396 -207 124 -50 244 -102 266 -115 95
-56 137 -149 115 -258 -13 -62 -36 -99 -81 -132 -64 -47 -123 -60 -270 -60
-116 1 -143 4 -192 23 -90 36 -148 115 -148 204 0 15 -4 38 -10 52 -9 25 -13
26 -94 26 -107 0 -111 -4 -103 -110 6 -99 38 -172 104 -238 95 -95 222 -134
438 -134 274 0 440 73 515 226 75 151 56 362 -41 466 -65 70 -119 98 -417 221
-298 123 -346 157 -373 262 -29 115 32 219 149 254 83 25 248 23 326 -5 114
-41 157 -94 166 -202 l5 -65 95 0 95 0 0 85 c0 110 -21 165 -89 234 -54 56
-127 96 -223 122 -67 18 -293 27 -365 14z"/>
<path d="M9375 8510 c-190 -30 -327 -121 -392 -260 -55 -118 -58 -142 -58
-540 1 -315 3 -374 18 -430 52 -196 168 -314 357 -366 91 -25 338 -26 430 -1
198 53 319 176 365 369 21 91 22 712 0 824 -39 207 -166 341 -367 389 -79 19
-273 27 -353 15z m330 -200 c76 -29 145 -98 177 -177 23 -57 23 -64 23 -433
l0 -375 -29 -63 c-34 -73 -86 -124 -165 -161 -52 -24 -66 -26 -191 -26 -128 0
-138 2 -198 29 -88 41 -145 106 -175 200 -21 68 -22 86 -22 416 0 340 0 346
24 404 41 101 130 179 238 206 21 5 88 8 148 6 85 -2 123 -8 170 -26z"/>
<path d="M12800 7898 c0 -337 3 -691 7 -786 l6 -173 96 3 96 3 -4 775 c-2 426
-5 778 -8 783 -2 4 -47 7 -99 7 l-94 0 0 -612z"/>
<path d="M10347 8493 c-49 -2 -80 -8 -82 -16 -2 -7 -1 -358 3 -782 l7 -770 95
0 95 0 3 338 2 337 154 0 153 0 203 -335 203 -335 108 0 c59 0 110 4 113 8 2
4 -87 158 -200 342 -112 184 -204 337 -204 340 0 3 21 13 48 22 99 36 191 129
233 235 20 50 23 76 23 183 0 106 -3 133 -22 182 -46 114 -141 190 -289 229
-67 18 -112 22 -323 24 -135 1 -280 0 -323 -2z m589 -187 c116 -37 165 -100
172 -226 6 -109 -16 -182 -73 -236 -58 -56 -117 -75 -250 -80 -60 -2 -155 -6
-211 -8 l-101 -4 -6 280 c-4 154 -4 285 -1 290 11 17 409 4 470 -16z"/>
<path d="M11492 7718 l3 -783 295 1 c271 1 303 2 388 23 243 59 385 195 452
431 51 184 49 536 -4 706 -48 150 -145 264 -280 328 -136 65 -166 69 -529 73
l-327 5 2 -784z m623 597 c181 -38 284 -137 332 -316 26 -100 23 -436 -6 -542
-49 -184 -147 -284 -326 -333 -40 -11 -121 -18 -242 -21 l-183 -6 0 617 0 616
178 0 c117 0 200 -5 247 -15z"/>
<path d="M5966 8467 c-71 -40 -104 -136 -72 -210 39 -92 140 -130 232 -88 130
59 132 239 2 307 -41 21 -116 17 -162 -9z"/>
<path d="M6850 8479 c-135 -14 -286 -96 -370 -201 -179 -224 -170 -539 21
-743 109 -116 228 -173 384 -182 169 -10 312 44 430 162 116 115 168 239 168
400 0 160 -52 287 -167 401 -129 129 -280 181 -466 163z m151 -319 c49 -14
123 -80 149 -135 32 -67 31 -148 -4 -219 -101 -207 -398 -186 -471 34 -41 123
24 261 147 315 39 17 128 19 179 5z"/>
<path d="M8605 8481 l-40 -6 3 -675 3 -675 -61 135 c-34 74 -184 378 -333 675
l-272 540 -158 3 c-121 2 -158 0 -162 -10 -2 -7 -1 -359 3 -783 l7 -770 95 0
95 0 -3 675 c-2 382 0 671 5 665 5 -5 35 -66 66 -135 32 -69 181 -368 331
-665 l273 -540 134 -3 c74 -1 145 0 158 3 l24 6 -7 777 c-5 593 -10 778 -19
784 -14 9 -82 8 -142 -1z"/>
<path d="M6051 8070 c-41 -10 -76 -35 -115 -84 l-31 -38 -3 -504 -3 -504 118
0 c65 0 135 3 156 6 l37 7 -2 561 -3 561 -60 2 c-33 1 -75 -2 -94 -7z"/>
<path d="M6393 7250 c-35 -14 -43 -42 -43 -155 0 -99 2 -107 25 -130 l24 -25
505 0 c356 0 512 3 530 11 33 16 46 56 46 149 0 93 -13 133 -46 149 -30 13
-1007 15 -1041 1z"/>
<path d="M7232 6800 c-10 -16 -10 -20 1 -20 14 0 37 20 37 32 0 16 -25 8 -38
-12z"/>
<path d="M1380 6800 c-94 -12 -252 -53 -347 -90 -75 -29 -83 -34 -83 -58 0
-66 99 -202 146 -202 9 0 47 9 83 20 123 36 250 53 401 53 236 0 292 -13 800
-191 221 -78 320 -95 515 -89 166 5 231 18 373 76 52 21 52 21 72 1 11 -11 20
-25 20 -30 0 -37 -145 -115 -282 -152 -70 -19 -107 -23 -243 -22 -186 0 -280
19 -495 99 -471 175 -492 180 -750 180 -181 0 -312 -14 -325 -34 -2 -4 148
-98 333 -208 185 -111 463 -277 617 -369 154 -92 294 -173 312 -181 51 -21
112 -16 168 13 28 15 181 104 340 199 160 94 317 188 350 207 368 215 765 455
787 475 28 27 68 101 68 127 0 16 -44 32 -180 67 -103 26 -337 37 -446 20 -95
-14 -225 -53 -359 -106 -182 -72 -221 -80 -390 -80 -174 1 -265 20 -470 100
-387 151 -492 176 -765 180 -102 2 -214 0 -250 -5z"/>
<path d="M13655 6779 c-37 -11 -55 -34 -55 -70 0 -32 14 -45 93 -84 50 -24 63
-35 65 -56 4 -35 -19 -51 -70 -47 -33 2 -45 8 -53 26 -13 29 -35 28 -35 -2 0
-35 35 -56 95 -56 57 0 90 18 99 54 12 48 -9 75 -84 108 -79 35 -96 61 -60 90
12 10 32 18 44 18 27 0 66 -27 66 -46 0 -8 7 -14 15 -14 22 0 19 36 -5 60 -11
11 -29 20 -39 20 -11 0 -25 2 -33 4 -7 2 -26 0 -43 -5z"/>
<path d="M12093 6770 c-43 -18 -55 -52 -52 -150 5 -106 20 -129 91 -137 65 -8
104 16 119 70 12 46 6 155 -10 186 -19 34 -98 51 -148 31z m107 -40 c17 -17
20 -33 20 -104 0 -76 -2 -86 -22 -100 -35 -25 -83 -20 -107 10 -17 21 -21 41
-21 94 0 53 4 73 21 94 26 33 79 36 109 6z"/>
<path d="M12370 6636 c0 -122 2 -146 15 -146 12 0 15 23 17 123 l3 122 63
-122 c59 -117 64 -123 93 -123 28 0 31 3 25 23 -3 12 -6 77 -6 145 0 102 -2
122 -15 122 -13 0 -15 -21 -15 -127 l0 -127 -62 124 c-56 111 -66 125 -90 128
l-28 3 0 -145z"/>
<path d="M12663 6756 c-25 -22 -28 -31 -31 -103 -5 -107 11 -147 67 -164 32
-9 50 -10 81 0 58 17 73 52 68 158 -3 78 -5 87 -31 109 -39 34 -115 34 -154 0z
m133 -27 c15 -17 19 -36 19 -101 0 -72 -2 -82 -24 -99 -30 -24 -72 -24 -102 0
-20 16 -23 27 -23 99 -1 65 3 84 18 101 26 29 86 29 112 0z"/>
<path d="M12900 6635 c0 -120 2 -145 15 -145 10 0 15 16 17 63 3 59 4 62 30
65 23 3 31 -5 65 -62 24 -41 45 -66 56 -66 23 0 23 0 -18 67 l-35 58 24 20
c29 24 39 54 30 90 -9 35 -56 55 -129 55 l-55 0 0 -145z m138 103 c7 -7 12
-27 12 -45 0 -39 -21 -53 -79 -53 l-41 0 0 55 0 55 48 0 c26 0 53 -5 60 -12z"/>
<path d="M13140 6635 l0 -145 58 0 c67 0 121 23 139 60 19 37 17 150 -3 179
-23 32 -74 51 -139 51 l-55 0 0 -145z m162 85 c12 -15 18 -39 18 -76 0 -92
-29 -124 -110 -124 l-40 0 0 116 0 116 57 -4 c43 -4 61 -10 75 -28z"/>
<path d="M13400 6635 l0 -145 80 0 c64 0 80 3 80 15 0 12 -14 15 -66 15 l-65
0 3 53 3 52 58 3 c76 4 74 22 -3 22 l-60 0 0 50 0 50 65 0 c51 0 65 3 65 15 0
12 -16 15 -80 15 l-80 0 0 -145z"/>
<path d="M13810 6765 c0 -11 11 -15 40 -15 l40 0 0 -125 c0 -121 1 -125 22
-125 21 0 21 2 14 125 l-6 125 45 0 c33 0 45 4 45 15 0 12 -18 15 -100 15 -82
0 -100 -3 -100 -15z"/>
<path d="M14040 6640 l0 -140 86 0 c64 0 85 3 81 13 -3 8 -23 11 -66 9 l-61
-3 0 56 0 55 55 0 c42 0 55 3 55 15 0 12 -13 15 -60 15 l-60 0 0 45 0 45 65 0
c51 0 65 3 65 15 0 12 -16 15 -80 15 l-80 0 0 -140z"/>
<path d="M10498 6759 c-32 -12 -49 -53 -36 -90 6 -19 28 -35 81 -60 52 -25 73
-40 75 -55 5 -32 -24 -54 -69 -54 -34 0 -43 5 -57 30 -9 16 -23 30 -29 30 -19
0 -16 -35 6 -61 16 -20 28 -24 79 -24 69 0 102 21 102 66 0 48 -11 60 -86 94
-62 28 -74 38 -74 57 0 13 5 29 12 36 25 25 108 8 108 -23 0 -17 16 -28 29
-20 6 3 6 17 0 34 -16 44 -79 62 -141 40z"/>
<path d="M10697 6763 c-4 -3 -7 -69 -7 -145 0 -135 1 -138 22 -138 21 0 21 2
15 107 -4 58 -7 123 -7 145 0 36 -8 47 -23 31z"/>
<path d="M10780 6626 l0 -146 60 0 c107 0 150 41 150 144 0 101 -31 132 -145
143 l-65 6 0 -147z m151 87 c39 -38 37 -146 -3 -183 -16 -14 -36 -20 -70 -20
l-48 0 0 116 0 117 51 -5 c32 -3 58 -12 70 -25z"/>
<path d="M11085 6758 c-3 -7 -22 -65 -44 -128 -21 -63 -42 -123 -46 -132 -5
-14 -2 -18 12 -18 14 0 23 10 29 33 9 31 11 32 72 35 l63 3 14 -36 c14 -33 46
-49 44 -22 0 6 -22 71 -48 142 -39 108 -51 131 -69 133 -12 2 -24 -3 -27 -10z
m53 -96 c12 -38 22 -71 22 -75 0 -4 -22 -7 -50 -7 -27 0 -50 3 -50 7 0 16 44
143 50 143 3 0 16 -31 28 -68z"/>
<path d="M11250 6625 l0 -145 58 0 c67 0 121 23 139 60 19 37 17 150 -3 179
-23 32 -74 51 -139 51 l-55 0 0 -145z m162 85 c12 -15 18 -39 18 -76 0 -92
-29 -124 -110 -124 l-40 0 0 116 0 116 57 -4 c43 -4 61 -10 75 -28z"/>
<path d="M11510 6625 l0 -145 80 0 c63 0 80 3 80 15 0 10 -16 15 -62 17 l-63
3 0 50 0 50 58 3 c31 2 57 7 57 12 0 5 -26 10 -57 12 l-58 3 -3 48 -3 47 65 0
c52 0 66 3 66 15 0 12 -16 15 -80 15 l-80 0 0 -145z"/>
<path d="M11780 6708 c0 -35 3 -101 7 -147 l6 -83 64 5 c34 2 75 12 89 22 50
33 69 129 39 201 -18 44 -63 64 -145 64 l-60 0 0 -62z m158 9 c45 -48 34 -168
-18 -194 -14 -7 -42 -13 -62 -13 l-38 0 0 115 0 115 48 0 c37 0 53 -5 70 -23z"/>
<path d="M8322 6750 c-31 -13 -48 -54 -36 -88 7 -20 28 -36 79 -62 52 -26 71
-41 73 -58 5 -33 -15 -52 -55 -52 -45 0 -73 16 -73 40 0 11 -7 20 -15 20 -16
0 -21 -36 -7 -56 21 -33 98 -44 146 -23 13 7 30 25 37 41 18 45 -1 74 -69 105
-91 41 -109 64 -76 97 33 33 114 9 114 -33 0 -20 25 -6 28 15 6 44 -88 79
-146 54z"/>
<path d="M8860 6615 l0 -145 69 0 c83 0 121 23 121 71 0 38 -16 69 -35 69 -21
0 -19 12 5 33 23 19 26 55 7 81 -14 19 -72 35 -129 36 l-38 0 0 -145z m130 95
c11 -11 20 -24 20 -30 0 -24 -41 -50 -80 -50 l-40 0 0 50 0 50 40 0 c27 0 47
-7 60 -20z m14 -126 c22 -21 20 -61 -3 -74 -11 -5 -40 -10 -65 -10 l-46 0 0
50 0 50 49 0 c32 0 55 -6 65 -16z"/>
<path d="M9090 6615 c0 -122 2 -145 15 -145 13 0 15 23 15 145 0 122 -2 145
-15 145 -13 0 -15 -23 -15 -145z"/>
<path d="M9209 6747 c-29 -22 -39 -55 -39 -132 0 -114 22 -144 107 -145 93 0
128 64 108 195 -10 69 -40 95 -107 95 -29 0 -60 -6 -69 -13z m124 -35 c13 -12
17 -31 17 -93 0 -96 -4 -105 -44 -119 -43 -14 -83 1 -96 35 -16 41 -12 147 5
172 24 34 82 36 118 5z"/>
<path d="M9430 6698 c0 -35 3 -100 7 -145 l6 -83 54 0 c62 0 112 20 132 52 7
12 16 49 18 82 8 113 -35 154 -159 155 l-58 1 0 -62z m153 12 c31 -25 43 -82
27 -139 -13 -50 -42 -71 -97 -71 l-43 0 0 115 0 115 44 0 c28 0 52 -7 69 -20z"/>
<path d="M9690 6615 c0 -120 3 -145 14 -145 25 0 28 17 20 155 -5 104 -10 135
-20 135 -11 0 -14 -29 -14 -145z"/>
<path d="M9751 6753 c0 -4 21 -69 47 -143 43 -123 49 -135 71 -135 22 0 28 12
72 143 41 122 45 142 30 142 -12 0 -25 -25 -50 -102 -56 -172 -48 -170 -96
-28 -29 87 -47 126 -58 128 -10 2 -17 0 -16 -5z"/>
<path d="M10010 6615 l0 -146 82 3 c54 2 83 7 86 16 3 9 -14 12 -62 12 l-66 0
0 55 0 55 55 0 c73 0 71 18 -2 22 l-58 3 -3 48 -3 47 65 0 c52 0 66 3 66 15 0
12 -16 15 -80 15 l-80 0 0 -145z"/>
<path d="M10220 6620 c0 -133 1 -140 20 -140 18 0 20 7 20 60 0 59 0 60 29 60
24 0 34 -9 63 -57 23 -39 41 -59 56 -61 22 -3 21 -1 -13 52 -19 30 -35 57 -35
60 0 3 11 16 25 30 32 32 34 87 5 116 -16 16 -33 20 -95 20 l-75 0 0 -140z
m145 100 c8 -7 15 -23 15 -36 0 -37 -26 -54 -81 -54 l-49 0 0 48 c0 27 3 52 8
56 10 11 89 1 107 -14z"/>
<path d="M6764 6741 c-42 -18 -54 -50 -54 -143 0 -77 3 -90 24 -115 21 -25 31
-28 81 -28 50 0 60 3 81 28 21 25 24 37 24 117 0 78 -3 92 -23 115 -25 30 -94
43 -133 26z m106 -41 c17 -17 20 -33 20 -100 0 -94 -16 -120 -75 -120 -59 0
-75 26 -75 120 0 94 16 120 75 120 22 0 43 -8 55 -20z"/>
<path d="M6977 6743 c-4 -3 -7 -69 -7 -145 l0 -138 80 0 c64 0 80 3 80 15 0
12 -13 15 -59 15 l-58 0 -6 83 c-4 45 -7 103 -7 130 0 44 -7 56 -23 40z"/>
<path d="M7160 6605 l0 -145 80 0 c64 0 80 3 80 15 0 12 -14 15 -65 15 l-65 0
0 50 0 50 60 0 c47 0 60 3 60 15 0 12 -13 15 -60 15 l-60 0 0 50 0 50 65 0
c51 0 65 3 65 15 0 12 -16 15 -80 15 l-80 0 0 -145z"/>
<path d="M7385 6725 c-23 -22 -25 -32 -25 -120 0 -88 2 -98 25 -120 20 -21 34
-25 80 -25 46 0 60 4 80 25 28 27 34 75 10 75 -8 0 -15 -8 -15 -18 0 -53 -96
-77 -131 -33 -27 33 -27 159 -1 191 36 44 132 18 132 -36 0 -8 7 -14 15 -14
24 0 18 48 -10 75 -20 21 -34 25 -80 25 -46 0 -60 -4 -80 -25z"/>
<path d="M7611 6703 c0 -27 4 -83 8 -127 8 -94 27 -116 98 -116 91 0 113 38
113 190 0 93 -1 100 -20 100 -19 0 -20 -7 -20 -112 0 -62 -4 -118 -8 -124 -13
-20 -53 -35 -75 -28 -52 15 -57 29 -57 151 0 106 -1 113 -20 113 -17 0 -20 -6
-19 -47z"/>
<path d="M7880 6605 l0 -146 92 3 92 3 10 33 9 32 68 0 67 0 12 -35 c11 -33
41 -50 39 -22 0 6 -21 71 -47 142 -40 110 -51 130 -70 133 -16 2 -24 -3 -30
-20 -5 -13 -26 -71 -46 -130 l-38 -108 -64 0 -64 0 0 130 c0 109 -2 130 -15
130 -13 0 -15 -23 -15 -145z m298 37 c12 -38 22 -71 22 -75 0 -4 -22 -7 -50
-7 -27 0 -50 3 -50 7 0 16 44 143 50 143 3 0 16 -31 28 -68z"/>
<path d="M8580 6610 l0 -140 86 0 c64 0 85 3 81 13 -3 8 -23 11 -66 9 l-61 -3
0 56 0 55 55 0 c42 0 55 3 55 15 0 12 -13 15 -60 15 l-60 0 0 45 0 45 65 0
c51 0 65 3 65 15 0 12 -16 15 -80 15 l-80 0 0 -140z"/>
<path d="M5310 6712 c-28 -29 -30 -35 -30 -111 0 -44 4 -91 10 -106 21 -56
127 -69 178 -22 25 23 30 67 7 67 -8 0 -15 -9 -15 -19 0 -49 -85 -67 -125 -26
-22 21 -25 33 -25 90 0 97 18 125 81 125 38 0 69 -24 69 -53 0 -9 7 -17 15
-17 23 0 19 53 -5 75 -13 11 -41 20 -75 23 -50 4 -57 2 -85 -26z"/>
<path d="M5559 6711 c-27 -28 -29 -34 -29 -110 0 -44 4 -91 10 -106 22 -57
134 -69 180 -20 18 19 24 39 27 92 9 124 -24 173 -115 173 -35 0 -49 -6 -73
-29z m133 -18 c28 -25 26 -175 -2 -203 -28 -28 -75 -26 -106 6 -24 24 -26 30
-22 105 3 66 7 83 23 95 26 19 84 18 107 -3z"/>
<path d="M5860 6595 l0 -145 58 0 c67 0 121 23 139 60 19 37 17 150 -3 179
-23 32 -74 51 -139 51 l-55 0 0 -145z m162 85 c12 -15 18 -39 18 -76 0 -92
-29 -124 -110 -124 l-40 0 0 116 0 116 57 -4 c43 -4 61 -10 75 -28z"/>
<path d="M6120 6595 l0 -145 80 0 c63 0 80 3 80 15 0 10 -16 15 -62 17 l-63 3
0 50 0 50 58 3 c31 2 57 7 57 12 0 5 -26 10 -57 12 l-58 3 -3 48 -3 47 65 0
c52 0 66 3 66 15 0 12 -16 15 -80 15 l-80 0 0 -145z"/>
<path d="M6390 6595 c0 -122 2 -145 15 -145 13 0 15 21 15 127 0 70 4 123 8
118 5 -6 28 -54 52 -108 24 -54 46 -94 50 -90 4 4 26 53 51 107 l44 99 3 -126
c2 -104 5 -127 17 -127 13 0 15 24 15 145 l0 145 -28 0 c-25 0 -31 -7 -62 -82
-19 -45 -39 -80 -45 -78 -5 1 -25 38 -44 81 -31 72 -37 79 -63 79 l-28 0 0
-145z"/>
<path d="M4570 6585 l0 -145 53 1 c74 0 120 18 131 52 12 34 -2 78 -31 92
l-21 11 24 21 c31 27 30 57 -1 88 -21 22 -33 25 -90 25 l-65 0 0 -145z m128
103 c7 -7 12 -21 12 -33 0 -32 -20 -45 -67 -45 l-43 0 0 45 0 45 43 0 c24 0
48 -5 55 -12z m12 -128 c42 -42 8 -90 -65 -90 l-45 0 0 55 0 55 45 0 c32 0 51
-6 65 -20z"/>
<path d="M4809 6603 c-23 -71 -44 -134 -47 -142 -3 -8 1 -12 14 -9 10 1 21 14
24 28 5 23 11 25 73 28 67 3 68 3 78 -28 7 -19 18 -30 30 -30 19 0 21 -7 -73
253 -7 19 -17 27 -33 27 -21 0 -28 -13 -66 -127z m92 30 c12 -38 24 -74 27
-80 3 -9 -10 -13 -45 -13 -27 0 -52 3 -55 6 -6 5 40 154 47 154 2 0 13 -30 26
-67z"/>
<path d="M5010 6673 c0 -120 12 -223 26 -223 11 0 14 27 15 123 l0 122 62
-122 c56 -113 64 -123 89 -123 l28 0 0 140 c0 116 -2 140 -15 140 -12 0 -15
-23 -17 -122 l-3 -123 -63 123 c-59 115 -64 122 -92 122 -30 0 -30 0 -30 -57z"/>
</g>
</svg>
