<?xml version="1.0" standalone="no"?>
<!DOCTYPE svg PUBLIC "-//W3C//DTD SVG 20010904//EN"
 "http://www.w3.org/TR/2001/REC-SVG-20010904/DTD/svg10.dtd">
<svg version="1.0" xmlns="http://www.w3.org/2000/svg"
 width="1500.000000pt" height="1500.000000pt" viewBox="0 0 1500.000000 1500.000000"
 preserveAspectRatio="xMidYMid meet">

<g transform="translate(0.000000,1500.000000) scale(0.100000,-0.100000)"
fill="#000000" stroke="none">
<path d="M2492 9894 c-61 -30 -96 -68 -131 -144 l-26 -55 -3 -977 c-1 -538 -4
-978 -6 -978 -25 0 -107 50 -147 90 -94 94 -93 90 -99 520 -5 353 -6 378 -26
420 -53 115 -190 162 -292 100 -45 -28 -89 -93 -101 -151 -14 -64 -14 -733 -1
-853 15 -126 51 -227 118 -326 117 -173 292 -280 515 -315 l37 -6 0 -244 0
-243 88 -32 c127 -47 302 -89 398 -97 l84 -6 0 304 0 304 74 22 c99 31 212
107 283 192 93 112 137 220 168 414 l6 37 128 0 128 0 31 -48 c87 -134 280
-142 377 -14 78 102 67 239 -27 329 -65 63 -171 82 -253 44 -43 -19 -100 -78
-115 -117 -9 -24 -12 -24 -140 -24 l-130 0 0 160 c0 154 1 160 20 160 28 0 90
33 117 62 33 35 53 91 53 150 -1 218 -276 299 -397 117 -51 -77 -40 -211 22
-269 25 -23 25 -25 25 -199 0 -164 -2 -179 -24 -226 -32 -68 -307 -375 -335
-375 -7 0 -11 343 -13 1038 l-3 1037 -26 55 c-32 66 -88 126 -143 151 -64 29
-169 26 -234 -7z"/>
<path d="M1555 9141 c-716 -414 -755 -439 -802 -541 -42 -92 -43 -112 -43
-1083 0 -1015 -1 -997 56 -1095 48 -81 86 -112 283 -229 108 -64 255 -151 326
-193 141 -84 615 -365 894 -530 196 -117 255 -140 350 -140 94 1 141 21 366
154 315 187 537 319 860 511 165 98 348 206 407 241 124 75 195 146 230 232
l23 57 3 980 c2 959 2 981 -18 1045 -24 78 -73 147 -132 188 -59 40 -1330 776
-1361 788 -15 5 -17 -4 -17 -94 l0 -100 108 -63 c59 -34 170 -99 247 -144 77
-46 304 -178 505 -295 201 -116 381 -224 400 -239 19 -15 45 -47 57 -71 l23
-44 0 -931 0 -932 -120 33 c-162 45 -333 61 -470 45 -138 -15 -237 -42 -415
-111 -212 -82 -272 -94 -458 -87 -177 6 -248 22 -474 111 -354 138 -493 172
-743 182 -272 11 -492 -29 -727 -133 -10 -4 -13 180 -13 904 l0 909 25 50 c30
61 55 80 277 207 91 53 233 135 315 183 81 47 207 120 278 161 72 42 171 99
220 128 50 29 123 71 163 94 l72 42 0 68 c0 73 -8 132 -19 130 -3 0 -307 -175
-676 -388z m180 -2661 c128 -15 262 -52 474 -130 347 -127 434 -149 636 -157
165 -6 269 9 411 63 111 41 131 43 140 9 10 -40 -18 -69 -108 -113 -116 -58
-218 -82 -369 -89 -196 -9 -361 22 -594 112 -352 135 -431 159 -620 181 -150
18 -271 13 -412 -17 l-93 -20 -71 42 c-52 30 -68 44 -58 50 25 13 214 58 286
68 97 12 273 13 378 1z"/>
<path d="M4652 7812 c1 -457 6 -834 10 -838 5 -4 180 -2 390 3 303 9 395 15
442 28 163 46 248 131 287 285 18 71 18 287 0 360 -17 68 -64 159 -100 194
l-28 27 20 57 c14 40 21 93 24 182 11 300 -78 446 -309 506 -50 13 -132 18
-401 21 l-339 5 4 -830z m544 509 c152 -15 187 -48 187 -179 0 -82 -15 -112
-74 -147 -29 -17 -56 -20 -186 -24 l-153 -3 0 138 c0 77 -3 156 -6 176 l-6 37
48 4 c90 7 99 6 190 -2z m209 -696 c53 -26 75 -71 75 -153 0 -151 -61 -182
-362 -182 l-148 0 0 181 0 181 198 -4 c173 -3 202 -5 237 -23z"/>
<path d="M13650 8549 c-193 -16 -319 -91 -384 -229 -28 -60 -31 -73 -30 -170
0 -131 23 -197 92 -268 66 -68 111 -91 395 -208 269 -111 310 -133 354 -190
23 -31 28 -49 31 -110 5 -84 -9 -133 -49 -179 -95 -107 -407 -125 -550 -31
-46 31 -77 88 -85 153 -11 102 -2 94 -112 91 l-97 -3 0 -90 c0 -82 3 -97 33
-157 54 -111 156 -183 300 -214 90 -19 326 -19 416 1 144 31 250 101 303 202
85 159 62 375 -52 489 -62 63 -113 89 -405 211 -124 51 -248 109 -276 128 -68
47 -97 99 -96 179 0 154 87 218 297 219 127 1 199 -16 263 -63 53 -38 74 -79
81 -160 l6 -65 95 0 95 0 0 95 c-1 82 -4 102 -27 145 -85 164 -308 248 -598
224z"/>
<path d="M9425 8514 c-196 -42 -323 -158 -382 -349 -16 -54 -18 -100 -18 -440
0 -338 2 -387 18 -445 75 -265 289 -394 622 -376 194 10 301 50 401 150 68 68
101 128 129 231 22 82 22 742 0 848 -42 200 -183 338 -390 382 -89 19 -288 18
-380 -1z m379 -194 c70 -27 132 -85 163 -151 39 -82 44 -155 41 -499 -3 -311
-4 -327 -26 -382 -45 -110 -142 -180 -283 -200 -138 -21 -278 12 -366 86 -37
31 -78 107 -91 171 -14 66 -23 603 -11 695 19 155 101 256 239 294 83 24 257
16 334 -14z"/>
<path d="M11593 8509 c-7 -10 -9 -240 -4 -789 l6 -775 220 -3 c440 -6 615 37
764 187 145 145 200 346 188 691 -7 192 -26 282 -84 393 -74 140 -199 231
-383 278 -75 19 -120 22 -390 26 -250 4 -308 3 -317 -8z m646 -190 c169 -43
266 -142 306 -310 20 -87 20 -416 0 -514 -21 -100 -75 -205 -133 -256 -101
-89 -210 -119 -448 -119 l-161 0 -7 38 c-3 20 -6 294 -6 609 l0 572 73 4 c125
6 299 -5 376 -24z"/>
<path d="M12900 7751 c0 -423 3 -776 6 -785 5 -13 24 -16 99 -16 53 0 97 4
100 10 4 6 3 359 -1 785 l-7 775 -99 0 -98 0 0 -769z"/>
<path d="M6085 8496 c-38 -17 -80 -62 -94 -99 -53 -139 85 -276 224 -223 129
50 152 211 43 299 -45 36 -123 46 -173 23z"/>
<path d="M10365 8500 c-13 -21 6 -1554 19 -1562 13 -9 148 -10 170 -2 14 5 16
45 16 340 l0 334 153 0 154 0 203 -335 203 -335 108 0 c59 0 110 4 114 10 3 5
-87 161 -200 346 -113 185 -205 337 -203 339 2 1 24 10 49 19 99 37 188 127
230 233 21 50 24 75 24 188 0 112 -3 138 -23 188 -29 72 -104 150 -174 182
-120 54 -149 58 -504 63 -248 3 -334 1 -339 -8z m608 -171 c134 -21 194 -65
223 -167 34 -116 -3 -270 -78 -324 -70 -49 -131 -61 -345 -66 l-203 -4 0 286
0 286 166 0 c91 0 198 -5 237 -11z"/>
<path d="M6905 8488 c-91 -17 -213 -84 -286 -157 -316 -317 -161 -854 277
-957 131 -31 296 -6 413 63 61 36 153 124 192 185 109 170 116 411 18 586 -48
84 -160 190 -243 230 -116 56 -246 74 -371 50z m220 -327 c197 -89 195 -376
-4 -464 -54 -24 -141 -25 -199 -2 -52 21 -128 103 -142 153 -13 48 -13 117 1
166 14 49 103 141 150 154 57 17 150 13 194 -7z"/>
<path d="M7810 8490 l-125 -5 -2 -235 c-2 -129 1 -480 5 -780 l7 -545 95 0 95
0 -1 670 0 670 327 -656 c180 -361 335 -664 344 -673 14 -13 40 -16 150 -16
73 0 140 3 149 6 14 6 16 70 16 623 0 340 -3 693 -7 785 l-6 167 -96 -3 -96
-3 2 -675 3 -675 -22 50 c-47 109 -641 1290 -652 1297 -6 4 -22 7 -36 6 -14
-1 -81 -5 -150 -8z"/>
<path d="M6160 8081 c-71 -15 -112 -46 -146 -111 -21 -39 -21 -46 -16 -662 l2
-358 155 0 155 0 -2 568 -3 567 -55 2 c-30 0 -71 -2 -90 -6z"/>
<path d="M6470 7250 c-18 -18 -20 -33 -20 -138 0 -103 3 -121 18 -135 17 -15
69 -17 543 -17 288 0 529 4 535 8 25 17 34 56 34 152 0 94 -2 103 -25 125
l-24 25 -521 0 c-507 0 -521 -1 -540 -20z"/>
<path d="M7322 6835 c-10 -21 -9 -25 5 -25 15 0 42 27 43 43 0 18 -38 4 -48
-18z"/>
<path d="M13753 6823 c-26 -5 -63 -48 -63 -72 0 -31 32 -62 94 -90 67 -30 83
-50 65 -82 -16 -30 -100 -23 -114 9 -11 25 -45 30 -45 6 0 -66 110 -96 178
-48 16 11 22 25 22 52 0 51 -6 57 -83 92 -37 17 -71 38 -74 47 -11 29 11 48
58 48 36 0 46 -4 54 -22 11 -25 45 -31 45 -9 0 43 -75 81 -137 69z"/>
<path d="M12190 6803 c-54 -28 -76 -122 -50 -214 15 -55 42 -73 106 -73 45 0
59 4 80 26 50 49 43 219 -10 253 -38 25 -87 28 -126 8z m105 -37 c16 -11 20
-30 23 -90 5 -97 -10 -126 -66 -126 -66 0 -77 16 -77 115 0 74 3 89 19 101 25
18 77 18 101 0z"/>
<path d="M12759 6791 c-28 -28 -29 -33 -29 -121 0 -88 1 -93 29 -121 40 -39
115 -42 158 -5 26 22 28 31 31 109 6 128 -22 167 -119 167 -31 0 -47 -7 -70
-29z m114 -12 c33 -18 37 -28 37 -111 0 -65 -3 -81 -20 -98 -25 -25 -71 -26
-100 -2 -19 16 -22 28 -24 101 -1 76 1 84 23 102 27 22 53 24 84 8z"/>
<path d="M12995 6808 c-3 -8 -4 -74 -3 -148 3 -119 5 -135 21 -138 15 -3 17 5
17 62 l0 66 29 0 c25 0 34 -9 67 -65 25 -42 45 -65 56 -65 25 0 23 6 -18 74
-27 46 -32 61 -22 67 7 5 16 9 19 9 9 0 29 48 29 70 0 10 -10 31 -22 45 -20
22 -34 27 -95 32 -58 5 -74 3 -78 -9z m143 -40 c17 -17 15 -54 -4 -72 -9 -10
-33 -16 -60 -16 l-44 0 0 50 0 50 48 0 c26 0 53 -5 60 -12z"/>
<path d="M13237 6813 c-9 -8 -9 -141 -1 -222 l7 -61 69 0 c66 0 72 2 104 34
33 33 34 37 34 108 0 84 -14 112 -66 134 -34 14 -135 19 -147 7z m116 -34 c50
-14 72 -59 62 -130 -9 -62 -39 -89 -101 -89 l-44 0 0 108 c0 60 3 112 7 115 9
10 32 9 76 -4z"/>
<path d="M13490 6675 l0 -145 85 0 c69 0 85 3 85 15 0 12 -14 15 -65 15 l-65
0 0 50 0 50 60 0 c47 0 60 3 60 15 0 12 -13 15 -60 15 l-60 0 0 45 0 44 62 3
c50 2 63 6 66 21 3 15 -6 17 -82 17 l-86 0 0 -145z"/>
<path d="M13900 6806 c0 -10 14 -16 43 -18 l42 -3 3 -127 c2 -122 4 -128 23
-128 21 0 21 4 18 128 l-4 127 43 3 c28 2 42 8 42 18 0 11 -20 14 -105 14 -85
0 -105 -3 -105 -14z"/>
<path d="M14140 6675 l0 -146 83 3 c65 2 82 6 82 18 0 12 -13 15 -62 14 l-63
-1 0 49 0 48 55 0 c48 0 55 2 55 20 0 18 -7 20 -61 20 l-60 0 3 43 3 42 63 3
c46 2 62 7 62 17 0 12 -17 15 -80 15 l-80 0 0 -145z"/>
<path d="M10593 6800 c-46 -19 -57 -84 -20 -116 12 -11 42 -29 67 -39 60 -25
70 -33 70 -59 0 -32 -19 -46 -62 -46 -33 0 -42 5 -56 30 -22 38 -42 39 -42 1
0 -42 32 -61 100 -61 67 0 100 26 100 78 0 38 -26 64 -88 87 -63 24 -74 34
-70 63 5 46 93 48 113 4 12 -27 41 -25 37 3 -6 34 -37 57 -83 61 -24 2 -54 0
-66 -6z"/>
<path d="M10875 6798 c-3 -8 -4 -75 -3 -149 l3 -134 29 -3 c56 -7 116 9 149
37 27 25 31 36 35 93 5 77 -15 129 -55 147 -14 7 -55 15 -89 18 -50 5 -65 3
-69 -9z m149 -49 c23 -18 26 -27 26 -85 0 -84 -25 -114 -95 -114 l-45 0 0 110
0 110 44 0 c29 0 52 -7 70 -21z"/>
<path d="M11182 6793 c-20 -40 -95 -274 -89 -279 13 -13 35 6 42 35 7 31 7 31
71 31 63 0 64 0 78 -35 14 -33 46 -49 46 -22 0 6 -22 73 -49 147 -39 109 -52
136 -69 138 -12 2 -24 -4 -30 -15z m53 -103 c10 -30 20 -61 23 -67 3 -9 -10
-13 -47 -13 -28 0 -51 3 -51 6 0 25 43 145 50 138 4 -5 16 -34 25 -64z"/>
<path d="M11347 6803 c-9 -8 -9 -141 -1 -222 l7 -61 69 0 c66 0 72 2 104 34
33 33 34 37 34 108 0 84 -14 112 -66 134 -34 14 -135 19 -147 7z m116 -34 c50
-14 72 -59 62 -130 -9 -62 -39 -89 -101 -89 l-44 0 0 108 c0 60 3 112 7 115 9
10 32 9 76 -4z"/>
<path d="M11600 6665 l0 -145 85 0 c69 0 85 3 85 15 0 12 -14 15 -65 15 l-65
0 0 50 0 50 60 0 c47 0 60 3 60 15 0 12 -13 15 -60 15 l-60 0 0 45 0 44 62 3
c50 2 63 6 66 21 3 15 -6 17 -82 17 l-86 0 0 -145z"/>
<path d="M11880 6665 l0 -145 59 0 c112 0 149 30 158 129 11 114 -35 161 -157
161 l-60 0 0 -145z m139 100 c35 -18 41 -32 41 -102 0 -47 -4 -59 -29 -84 -23
-23 -39 -29 -70 -29 l-41 0 0 115 0 115 35 0 c20 0 49 -7 64 -15z"/>
<path d="M12460 6726 c0 -125 10 -206 26 -206 11 0 14 26 14 123 l1 122 62
-120 c58 -113 64 -120 92 -120 26 0 30 3 29 28 0 15 -1 79 -2 142 -2 95 -5
115 -17 115 -12 0 -15 -21 -16 -122 l0 -123 -62 123 c-60 119 -63 122 -94 122
l-33 0 0 -84z"/>
<path d="M8439 6793 c-36 -5 -62 -37 -62 -73 0 -39 23 -64 81 -85 56 -21 82
-42 82 -65 0 -28 -25 -41 -72 -38 -33 2 -45 8 -53 26 -11 25 -45 30 -45 6 0
-48 61 -81 129 -69 60 10 91 57 72 109 -8 19 -29 34 -80 57 -73 32 -93 57 -70
85 20 24 92 15 104 -13 12 -29 45 -31 45 -3 0 25 -34 60 -59 60 -11 0 -25 2
-33 3 -7 2 -25 2 -39 0z"/>
<path d="M9185 6788 c-3 -8 -4 -74 -3 -148 3 -120 5 -135 21 -138 16 -3 17 7
15 144 -2 107 -6 148 -15 152 -7 2 -15 -3 -18 -10z"/>
<path d="M9308 6784 c-19 -10 -31 -28 -39 -57 -11 -41 -7 -144 7 -180 15 -41
111 -61 164 -34 67 34 67 237 0 272 -37 19 -97 19 -132 -1z m117 -39 c22 -21
25 -33 25 -95 0 -62 -3 -74 -25 -95 -13 -14 -36 -25 -50 -25 -14 0 -37 11 -50
25 -22 21 -25 33 -25 95 0 62 3 74 25 95 13 14 36 25 50 25 14 0 37 -11 50
-25z"/>
<path d="M9530 6655 l0 -145 65 0 c112 0 150 39 150 151 -1 97 -49 139 -160
139 l-55 0 0 -145z m155 85 c16 -17 20 -34 20 -86 0 -60 -3 -68 -28 -90 -19
-16 -40 -24 -66 -24 l-38 0 -6 106 c-4 58 -4 111 -1 116 10 16 96 0 119 -22z"/>
<path d="M9790 6655 c0 -138 1 -145 20 -145 18 0 20 7 20 53 0 123 -13 237
-26 237 -11 0 -14 -30 -14 -145z"/>
<path d="M9841 6793 c0 -5 21 -69 48 -143 46 -131 48 -135 76 -135 28 0 29 4
76 143 45 136 47 143 27 140 -18 -2 -29 -25 -63 -128 l-42 -125 -42 128 c-35
104 -46 127 -62 127 -10 0 -19 -3 -18 -7z"/>
<path d="M10110 6655 l0 -145 85 0 c69 0 85 3 85 15 0 12 -14 15 -65 15 l-65
0 0 50 0 50 55 0 c41 0 55 4 55 15 0 10 -15 15 -57 17 l-58 3 0 45 0 45 63 3
c46 2 62 7 62 17 0 12 -17 15 -80 15 l-80 0 0 -145z"/>
<path d="M10320 6655 c0 -138 1 -145 20 -145 18 0 20 7 20 60 0 59 0 60 28 60
24 0 33 -9 63 -60 26 -46 39 -60 58 -60 22 0 22 1 9 23 -8 12 -25 39 -37 60
l-23 38 26 26 c36 36 36 93 0 122 -21 17 -41 21 -95 21 l-69 0 0 -145z m131
105 c13 -8 19 -21 19 -46 0 -28 -5 -36 -26 -44 -45 -18 -81 -12 -88 13 -8 30
-8 72 1 80 10 11 72 8 94 -3z"/>
<path d="M10790 6655 c0 -138 1 -145 20 -145 18 0 20 7 20 53 0 123 -13 237
-26 237 -11 0 -14 -30 -14 -145z"/>
<path d="M6854 6776 c-42 -19 -57 -66 -52 -163 3 -67 6 -78 31 -99 41 -35 128
-34 162 1 23 22 25 32 25 119 0 84 -3 98 -23 121 -28 33 -96 43 -143 21z m118
-44 c8 -9 13 -44 13 -92 0 -92 -17 -120 -72 -120 -56 0 -73 27 -73 118 0 63 4
82 18 94 32 29 91 29 114 0z"/>
<path d="M7250 6640 l0 -151 82 3 c70 3 83 6 86 21 3 15 -5 17 -62 17 l-66 0
0 50 0 50 60 0 c47 0 60 3 60 15 0 12 -13 15 -60 15 l-60 0 0 45 0 45 66 0
c57 0 65 2 62 18 -3 14 -16 17 -86 20 l-82 3 0 -151z"/>
<path d="M7503 6780 c-35 -14 -53 -61 -53 -140 0 -113 28 -150 114 -150 54 0
106 37 106 76 0 32 -37 34 -42 2 -4 -29 -47 -53 -80 -45 -49 13 -58 32 -58
117 0 85 9 104 58 117 33 8 76 -16 80 -45 4 -28 42 -31 42 -3 0 33 -11 51 -41
66 -31 16 -92 19 -126 5z"/>
<path d="M7710 6680 c0 -78 4 -119 15 -139 29 -57 124 -66 174 -16 25 24 26
30 26 143 0 103 -2 117 -17 120 -16 3 -18 -7 -18 -105 0 -119 -9 -146 -55
-157 -25 -6 -64 7 -77 28 -4 6 -8 62 -8 124 0 105 -1 112 -20 112 -19 0 -20
-7 -20 -110z"/>
<path d="M7970 6645 l0 -145 99 0 98 0 9 33 c10 32 10 32 74 32 64 0 64 0 74
-32 6 -22 15 -33 27 -33 11 0 19 6 18 13 0 6 -22 71 -48 142 -42 117 -50 130
-73 133 -24 3 -27 -3 -69 -127 l-44 -131 -62 0 -63 0 0 130 c0 123 -1 130 -20
130 -19 0 -20 -7 -20 -145z m305 35 c10 -30 20 -61 23 -67 3 -9 -10 -13 -47
-13 -28 0 -51 3 -51 7 0 21 45 142 51 136 3 -5 15 -33 24 -63z"/>
<path d="M8680 6645 l0 -146 83 3 c65 2 82 6 82 18 0 12 -13 15 -62 14 l-63
-1 0 49 0 48 55 0 c48 0 55 2 55 20 0 18 -7 20 -61 20 l-60 0 3 43 3 42 63 3
c46 2 62 7 62 17 0 12 -17 15 -80 15 l-80 0 0 -145z"/>
<path d="M8950 6706 c0 -45 3 -111 7 -146 l6 -62 73 4 c88 4 114 22 114 79 0
28 -6 42 -25 57 -24 19 -24 20 -5 37 26 24 25 69 -2 95 -18 16 -35 20 -95 20
l-73 0 0 -84z m138 42 c7 -7 12 -21 12 -33 0 -32 -20 -45 -67 -45 l-43 0 0 45
0 45 43 0 c24 0 48 -5 55 -12z m-3 -118 c23 -9 26 -15 23 -47 -3 -36 -6 -39
-45 -47 -61 -13 -73 -5 -73 47 0 24 3 47 7 50 10 10 58 8 88 -3z"/>
<path d="M5424 6766 c-42 -19 -57 -66 -52 -163 3 -67 6 -78 31 -99 40 -34 123
-34 161 1 32 30 36 75 6 75 -13 0 -20 -7 -20 -19 0 -49 -81 -70 -120 -31 -17
17 -20 33 -20 98 0 92 15 114 75 114 41 0 62 -14 67 -45 2 -12 11 -23 21 -25
27 -5 22 49 -7 77 -31 29 -99 37 -142 17z"/>
<path d="M5668 6764 c-19 -10 -31 -28 -39 -57 -11 -41 -7 -144 7 -180 15 -41
111 -61 164 -34 67 34 67 237 0 272 -37 19 -97 19 -132 -1z m117 -39 c22 -21
25 -33 25 -95 0 -62 -3 -74 -25 -95 -13 -14 -36 -25 -50 -25 -14 0 -37 11 -50
25 -22 21 -25 33 -25 95 0 62 3 74 25 95 13 14 36 25 50 25 14 0 37 -11 50
-25z"/>
<path d="M5957 6773 c-9 -8 -9 -141 -1 -222 l7 -61 69 0 c66 0 72 2 104 34 33
33 34 37 34 108 0 84 -14 112 -66 134 -34 14 -135 19 -147 7z m116 -34 c50
-14 72 -59 62 -130 -9 -62 -39 -89 -101 -89 l-44 0 0 108 c0 60 3 112 7 115 9
10 32 9 76 -4z"/>
<path d="M6217 6773 c-9 -8 -9 -141 -1 -222 l7 -61 78 0 c64 0 79 3 79 15 0
12 -14 15 -65 15 l-65 0 0 50 0 50 60 0 c47 0 60 3 60 15 0 12 -13 15 -60 15
l-60 0 0 45 0 45 65 0 c58 0 65 2 65 20 0 18 -7 20 -78 20 -43 0 -82 -3 -85
-7z"/>
<path d="M6490 6696 c0 -45 -3 -111 -6 -145 -7 -58 -6 -61 15 -61 20 0 21 4
22 123 l0 122 49 -103 c27 -57 53 -101 57 -99 4 3 26 47 48 97 22 51 41 84 42
74 1 -11 5 -63 8 -116 5 -75 10 -98 21 -98 11 0 14 27 14 146 l0 145 -31 -3
c-28 -3 -33 -10 -66 -85 -19 -46 -38 -81 -42 -79 -4 3 -22 41 -41 85 -31 74
-36 81 -62 81 l-28 0 0 -84z"/>
<path d="M7060 6696 c0 -45 3 -111 6 -145 l7 -61 78 0 c74 0 79 1 79 21 0 19
-5 21 -62 18 l-63 -4 -3 128 c-2 119 -4 127 -22 127 -18 0 -20 -7 -20 -84z"/>
<path d="M4660 6626 l0 -146 68 0 c37 0 78 6 92 13 48 24 52 107 6 128 l-23
11 23 24 c29 28 30 54 5 85 -16 20 -30 24 -95 27 l-76 4 0 -146z m118 108 c26
-8 39 -48 22 -69 -8 -9 -30 -15 -56 -15 l-44 0 0 45 c0 42 2 45 28 45 15 0 37
-3 50 -6z m30 -136 c7 -7 12 -25 12 -40 0 -32 -28 -48 -86 -48 l-34 0 0 50 0
50 48 0 c26 0 53 -5 60 -12z"/>
<path d="M4945 6758 c-3 -7 -22 -65 -44 -128 -21 -63 -42 -123 -46 -132 -5
-14 -2 -18 13 -18 14 0 24 10 32 35 11 35 12 35 71 35 59 0 60 -1 75 -35 10
-24 21 -35 35 -35 16 0 19 4 14 18 -4 9 -27 74 -52 145 -41 115 -48 127 -70
127 -13 0 -26 -6 -28 -12z m75 -170 c0 -4 -22 -8 -49 -8 l-49 0 19 63 c11 34
22 69 25 77 5 13 54 -107 54 -132z"/>
<path d="M5110 6625 c0 -138 1 -145 20 -145 19 0 20 7 21 118 l0 117 60 -117
c56 -111 61 -118 89 -118 l30 0 0 145 c0 138 -1 145 -20 145 -19 0 -20 -7 -21
-117 l0 -118 -60 118 c-56 110 -61 117 -89 117 l-30 0 0 -145z"/>
</g>
</svg>
